<svg width="157" height="43" viewBox="0 0 157 43" fill="none" xmlns="http://www.w3.org/2000/svg">
<g clip-path="url(#clip0_605_1866)">
<path fill-rule="evenodd" clip-rule="evenodd" d="M5.28795 19.0638L5.27686 19.0734C5.27686 19.0734 5.28478 19.0638 5.28795 19.0638Z" fill="url(#paint0_linear_605_1866)"/>
<path fill-rule="evenodd" clip-rule="evenodd" d="M5.29904 19.0501C5.30472 19.046 5.31074 19.0423 5.31704 19.0391C5.31704 19.0391 5.31704 19.0296 5.32396 19.0254L5.29904 19.0501ZM5.29904 19.0501C5.30472 19.046 5.31074 19.0423 5.31704 19.0391C5.31704 19.0391 5.31704 19.0296 5.32396 19.0254L5.29904 19.0501ZM5.29904 19.0501C5.30472 19.046 5.31074 19.0423 5.31704 19.0391C5.31704 19.0391 5.31704 19.0296 5.32396 19.0254L5.29904 19.0501ZM5.29904 19.0501C5.30472 19.046 5.31074 19.0423 5.31704 19.0391C5.31704 19.0391 5.31704 19.0296 5.32396 19.0254L5.29904 19.0501ZM5.29904 19.0501C5.30472 19.046 5.31074 19.0423 5.31704 19.0391C5.31704 19.0391 5.31704 19.0296 5.32396 19.0254L5.29904 19.0501ZM15.437 14.0202C11.4581 16.948 8.66848 21.1868 7.57191 25.9712C10.325 26.2616 12.9557 27.2498 15.21 28.8401C17.076 26.3761 19.6243 24.5004 22.5462 23.4405C21.1542 19.6825 18.6833 16.4085 15.437 14.0202ZM5.29904 19.0501C5.30472 19.046 5.31074 19.0423 5.31704 19.0391C5.31704 19.0391 5.31704 19.0296 5.32396 19.0254L5.29904 19.0501ZM5.29904 19.0501C5.30472 19.046 5.31074 19.0423 5.31704 19.0391C5.31704 19.0391 5.31704 19.0296 5.32396 19.0254L5.29904 19.0501ZM5.29904 19.0501C5.30472 19.046 5.31074 19.0423 5.31704 19.0391C5.31704 19.0391 5.31704 19.0296 5.32396 19.0254L5.29904 19.0501ZM5.29904 19.0501C5.30472 19.046 5.31074 19.0423 5.31704 19.0391C5.31704 19.0391 5.31704 19.0296 5.32396 19.0254L5.29904 19.0501ZM5.29904 19.0501C5.30472 19.046 5.31074 19.0423 5.31704 19.0391C5.31704 19.0391 5.31704 19.0296 5.32396 19.0254L5.29904 19.0501ZM5.29904 19.0501C5.30472 19.046 5.31074 19.0423 5.31704 19.0391C5.31704 19.0391 5.31704 19.0296 5.32396 19.0254L5.29904 19.0501ZM5.29904 19.0501C5.30472 19.046 5.31074 19.0423 5.31704 19.0391C5.31704 19.0391 5.31704 19.0296 5.32396 19.0254L5.29904 19.0501ZM26.4899 17.8902L15.0688 0L3.64768 17.8902C2.40327 20.0806 1.47161 22.4309 0.879272 24.8743C0.723318 25.5261 0.596894 26.1588 0.5 26.7723C2.21614 26.1797 4.02124 25.8789 5.83888 25.8822C5.89425 25.8822 5.951 25.8822 6.00637 25.8822C7.18599 20.4449 10.3949 15.6476 14.9926 12.4481L15.437 12.1386L15.8827 12.4481C19.6261 15.0511 22.4708 18.7291 24.0315 22.9845C25.3426 22.6491 26.6915 22.4802 28.0457 22.4819C28.2201 22.4819 28.3959 22.4819 28.5731 22.4915C28.0206 20.8986 27.3234 19.3585 26.4899 17.8902ZM11.1791 10.4542C10.613 11.4607 10.033 12.4221 9.44059 13.3588C8.84815 14.2954 8.24186 15.2006 7.56914 16.1414C7.23001 16.6166 6.87704 17.1 6.49638 17.5971C6.30121 17.8518 6.10188 18.1079 5.89287 18.3695C5.78905 18.5064 5.67831 18.6434 5.56896 18.7721L5.40147 18.9789L5.3641 19.0241V19.0309C5.35728 19.0442 5.34892 19.0565 5.33918 19.0679C5.33918 19.0679 5.33918 19.0679 5.32811 19.0802C5.30789 19.1025 5.28343 19.1206 5.25613 19.1336C5.24506 19.1336 5.24229 19.124 5.24506 19.1227V19.1021V19.0679L5.27551 18.931C5.30458 18.8365 5.33365 18.7406 5.37102 18.6365C5.44023 18.4339 5.52882 18.2189 5.62156 17.9956C5.81397 17.541 6.05067 17.0521 6.31366 16.5468C6.85351 15.4992 7.50408 14.3913 8.22525 13.2602C8.94643 12.129 9.73265 10.9691 10.5535 9.86809C10.9577 9.3299 11.3646 8.80404 11.7744 8.31105C12.1483 7.85188 12.5485 7.41432 12.9731 7.00051C12.3599 8.29873 11.7674 9.40522 11.1791 10.4542ZM5.31704 19.035C5.31704 19.035 5.31704 19.0254 5.32396 19.0213L5.29904 19.0474C5.30466 19.0427 5.31068 19.0386 5.31704 19.035ZM28.6894 25.0605C28.6077 24.7154 28.5163 24.3758 28.4125 24.0252H28.0291C26.8391 24.0243 25.6534 24.1692 24.4994 24.4566C24.2502 24.5182 24.0038 24.5853 23.7602 24.6606C23.5166 24.736 23.2633 24.8195 23.0196 24.9099C20.3895 25.8749 18.0978 27.5723 16.4211 29.7974C18.675 31.7209 20.3509 34.2202 21.2659 37.0225C21.3531 37.284 21.4306 37.5483 21.5012 37.8154C21.5718 38.0824 21.6396 38.3631 21.6991 38.637C21.8883 39.5319 21.9991 40.4415 22.0299 41.3553C23.872 40.5668 25.4914 39.345 26.7473 37.7962C29.2596 34.6547 29.9324 30.2479 28.6894 25.0605ZM5.29627 19.0569C5.30195 19.0528 5.30797 19.0491 5.31427 19.046C5.31427 19.046 5.31427 19.0364 5.32119 19.0323L5.29627 19.0569ZM20.3025 39.5764C20.2582 39.3026 20.2056 39.0328 20.1447 38.7671C20.0837 38.5014 20.0173 38.2395 19.9453 37.9811C19.1808 35.3125 17.6596 32.9164 15.5615 31.0764C15.365 30.9021 15.1633 30.734 14.9566 30.5725C14.7559 30.4136 14.5497 30.2602 14.3407 30.1123C12.2618 28.6384 9.82675 27.7329 7.28123 27.4871C7.02376 27.4611 6.76492 27.4419 6.50469 27.4324C6.28321 27.4214 6.06036 27.4159 5.83611 27.4159H5.72815C4.21972 27.4241 2.72172 27.6639 1.28761 28.1267C0.880657 32.2829 1.8413 35.6968 4.16122 38.2796C6.16832 40.5186 9.14437 41.9962 12.562 42.5015C12.8388 42.5436 13.1157 42.5782 13.3925 42.6056C13.6693 42.6344 13.9462 42.6563 14.223 42.67C14.2498 42.6713 14.2766 42.6713 14.3033 42.67C14.3587 42.67 14.414 42.67 14.4708 42.6782L14.7822 42.6891L15.0591 42.8768L15.3221 42.6946C15.4411 42.6946 15.5602 42.6946 15.6792 42.6946H15.7789L15.9865 42.6878C16.0848 42.6878 16.1831 42.6796 16.2799 42.6741C16.3768 42.6686 16.5111 42.6576 16.626 42.6494H16.68C17.9752 42.5511 19.2549 42.308 20.4949 41.925C20.4954 41.1383 20.431 40.3528 20.3025 39.5764ZM5.29904 19.0501C5.30472 19.046 5.31074 19.0423 5.31704 19.0391C5.31704 19.0391 5.31704 19.0296 5.32396 19.0254L5.29904 19.0501ZM5.29904 19.0501C5.30472 19.046 5.31074 19.0423 5.31704 19.0391C5.31704 19.0391 5.31704 19.0296 5.32396 19.0254L5.29904 19.0501ZM5.29904 19.0501C5.30472 19.046 5.31074 19.0423 5.31704 19.0391C5.31704 19.0391 5.31704 19.0296 5.32396 19.0254L5.29904 19.0501ZM5.29904 19.0501C5.30472 19.046 5.31074 19.0423 5.31704 19.0391C5.31704 19.0391 5.31704 19.0296 5.32396 19.0254L5.29904 19.0501ZM5.29904 19.0501C5.30472 19.046 5.31074 19.0423 5.31704 19.0391C5.31704 19.0391 5.31704 19.0296 5.32396 19.0254L5.29904 19.0501ZM5.29904 19.0501C5.30472 19.046 5.31074 19.0423 5.31704 19.0391C5.31704 19.0391 5.31704 19.0296 5.32396 19.0254L5.29904 19.0501ZM5.29904 19.0501C5.30472 19.046 5.31074 19.0423 5.31704 19.0391C5.31704 19.0391 5.31704 19.0296 5.32396 19.0254L5.29904 19.0501ZM5.29904 19.0501C5.30472 19.046 5.31074 19.0423 5.31704 19.0391C5.31704 19.0391 5.31704 19.0296 5.32396 19.0254L5.29904 19.0501ZM5.29904 19.0501C5.30472 19.046 5.31074 19.0423 5.31704 19.0391C5.31704 19.0391 5.31704 19.0296 5.32396 19.0254L5.29904 19.0501Z" fill="url(#paint1_linear_605_1866)"/>
<path fill-rule="evenodd" clip-rule="evenodd" d="M11.7743 8.31106C11.3591 8.80405 10.9577 9.32991 10.5535 9.8681C9.73263 10.9636 8.95609 12.1112 8.22385 13.2602C7.4916 14.4091 6.8521 15.5033 6.31226 16.5468C6.05203 17.0521 5.81533 17.541 5.62016 17.9956C5.52741 18.2188 5.43883 18.4338 5.36962 18.6365C5.33224 18.7406 5.30317 18.8365 5.2741 18.931L5.24365 19.0679V19.1021V19.1227C5.24365 19.1227 5.24365 19.135 5.25473 19.1336C5.28202 19.1206 5.30648 19.1025 5.3267 19.0802C5.33639 19.072 5.33363 19.072 5.33778 19.0679C5.34751 19.0565 5.35587 19.0442 5.36269 19.0309V19.0241L5.40007 18.9789L5.56756 18.7721C5.67691 18.6352 5.78765 18.4982 5.89146 18.3695C6.10048 18.1079 6.2998 17.8518 6.49497 17.5971C6.87563 17.0987 7.2286 16.6166 7.56773 16.1414C8.24046 15.2047 8.85505 14.2845 9.43918 13.3588C10.0233 12.433 10.6116 11.4607 11.1777 10.4542C11.766 9.40523 12.3585 8.29874 12.9772 7.00052C12.5512 7.41421 12.1496 7.85178 11.7743 8.31106ZM5.31702 19.035C5.31072 19.0382 5.3047 19.0419 5.29902 19.046L5.32394 19.02C5.32394 19.02 5.31978 19.035 5.31702 19.035Z" fill="white"/>
<path d="M5.32341 19.0241L5.31658 19.0378C5.31037 19.0409 5.30443 19.0446 5.29883 19.0487L5.32341 19.0241Z" fill="white"/>
<path fill-rule="evenodd" clip-rule="evenodd" d="M22.5476 23.4405C19.6257 24.5004 17.0773 26.3761 15.2113 28.8401C12.9571 27.2498 10.3263 26.2616 7.57324 25.9712C8.66981 21.1868 11.4594 16.948 15.4384 14.0202C18.6846 16.4085 21.1555 19.6825 22.5476 23.4405Z" fill="url(#paint2_linear_605_1866)"/>
<path fill-rule="evenodd" clip-rule="evenodd" d="M19.9452 37.9769C20.0199 38.2353 20.0864 38.4973 20.1445 38.763C18.7008 39.6928 16.9719 40.6103 15.0576 41.9414C14.634 41.6474 14.2238 41.3735 13.827 41.1198C13.5243 40.9208 13.2294 40.7313 12.9425 40.5514C12.6504 40.3652 12.368 40.1885 12.0939 40.016C8.38427 37.688 6.28027 36.3007 6.28027 30.4999C6.28004 29.4739 6.35451 28.4491 6.50313 27.4337C6.76336 27.4433 7.02221 27.4625 7.27967 27.4885C9.82518 27.7343 12.2602 28.6398 14.3391 30.1137C14.5482 30.2616 14.7544 30.415 14.9551 30.5738C15.1558 30.7327 15.3704 30.9038 15.56 31.0778C17.6576 32.9161 19.1793 35.3101 19.9452 37.9769Z" fill="url(#paint3_linear_605_1866)"/>
<path fill-rule="evenodd" clip-rule="evenodd" d="M24.5852 30.4944C24.5852 34.3698 23.428 36.2734 21.497 37.8044C21.4264 37.5373 21.3489 37.273 21.2617 37.0115C20.3469 34.2092 18.6709 31.7099 16.417 29.7864C18.0937 27.5613 20.3854 25.8639 23.0155 24.8989C23.2591 24.8085 23.5055 24.7263 23.7561 24.6497C24.3057 26.5503 24.5848 28.5175 24.5852 30.4944Z" fill="url(#paint4_linear_605_1866)"/>
<path d="M20.1445 38.763C20.0864 38.4973 20.02 38.2352 19.9452 37.9769C19.3625 38.3604 18.716 38.7466 18.0073 39.167C17.1117 39.701 16.111 40.2981 15.0562 41.0102C14.5717 40.6816 14.1053 40.3775 13.6609 40.0941C13.373 39.9114 13.0962 39.7357 12.8304 39.5668L12.638 39.4395L12.022 39.0519C8.71656 36.9581 7.05967 35.6284 7.05967 30.4889C7.05963 29.4806 7.13458 28.4735 7.28391 27.4762C7.02645 27.4502 6.7676 27.431 6.50737 27.4214C6.2859 27.4104 6.06304 27.405 5.8388 27.405H5.73083C5.58437 28.4256 5.51083 29.4553 5.51074 30.4862C5.51074 36.7732 8.01616 38.3467 11.8075 40.7295L12.2324 40.9965C12.5217 41.18 12.8221 41.3704 13.1336 41.5717C13.445 41.773 13.7634 41.9825 14.0914 42.2044C14.2631 42.3194 14.4366 42.438 14.6119 42.5604L14.7863 42.6823L15.0631 42.8699L15.3261 42.6878L15.5088 42.5618C16.684 41.7401 17.8163 41.0677 18.8143 40.472C19.3334 40.1625 19.8331 39.8654 20.3079 39.5655C20.26 39.2988 20.2054 39.0314 20.1445 38.763ZM24.5062 24.4456C24.257 24.5073 24.0106 24.5744 23.767 24.6497C23.5234 24.725 23.2701 24.8085 23.0265 24.8989C23.55 26.7189 23.8155 28.6021 23.8155 30.4944C23.8155 33.9084 22.9296 35.6147 21.2657 37.0115C21.353 37.2731 21.4305 37.5374 21.5011 37.8044C21.5717 38.0714 21.6395 38.3522 21.699 38.626C23.9303 36.9567 25.3644 34.882 25.3644 30.4944C25.3647 28.4483 25.0758 26.4124 24.5062 24.4456Z" fill="white"/>
<path d="M20.3023 39.5764C20.4292 40.346 20.4931 41.1246 20.4933 41.9044C19.2533 42.2875 17.9736 42.5305 16.6784 42.6289H16.6244C16.5095 42.6371 16.3946 42.6467 16.2784 42.6535C16.1621 42.6604 16.0832 42.6645 15.9849 42.6672L15.7773 42.6741H15.6776C15.5586 42.6741 15.4395 42.6741 15.3205 42.6741L15.0575 42.8562L14.7807 42.6686L14.4692 42.6576C14.4125 42.6576 14.3571 42.6576 14.3017 42.6494C14.275 42.6508 14.2482 42.6508 14.2214 42.6494C13.9446 42.6357 13.6677 42.6138 13.3909 42.585C13.2912 42.249 13.2036 41.908 13.1279 41.5621C13.0518 41.2211 12.9895 40.8774 12.9369 40.5282C12.8889 40.205 12.8515 39.8785 12.8248 39.549C12.7915 39.1445 12.7749 38.7337 12.7749 38.3165C12.7705 35.5782 13.523 32.8909 14.9509 30.545C15.1576 30.7066 15.3593 30.8745 15.5558 31.049C17.6539 32.8888 19.1751 35.285 19.9396 37.9536C20.0143 38.2119 20.0808 38.474 20.1389 38.7397C20.1971 39.0054 20.2515 39.2842 20.3023 39.5764Z" fill="url(#paint5_linear_605_1866)"/>
<path d="M26.7471 37.7962C25.4895 39.34 23.8701 40.5569 22.0297 41.3416C21.9988 40.4278 21.8881 39.5182 21.6989 38.6233C21.6407 38.3494 21.5747 38.0755 21.5009 37.8016C21.4303 37.5346 21.3528 37.2703 21.2656 37.0087C20.3507 34.2065 18.6747 31.7071 16.4209 29.7836C18.0974 27.5586 20.3891 25.8612 23.0194 24.8962C23.263 24.8058 23.5094 24.7236 23.76 24.6469C24.0105 24.5702 24.25 24.51 24.4991 24.4429C25.6531 24.1554 26.8387 24.0106 28.0289 24.0115H28.4123C28.5092 24.3552 28.6005 24.6962 28.6891 25.0468C29.9321 30.2479 29.2594 34.6547 26.7471 37.7962Z" fill="url(#paint6_linear_605_1866)"/>
<path d="M13.8271 41.1143C13.7597 40.7756 13.7053 40.4355 13.6637 40.0941C13.5918 39.5134 13.5557 38.929 13.5558 38.3439C13.5522 35.7872 14.245 33.2767 15.5615 31.0764C15.3649 30.9021 15.1633 30.734 14.9566 30.5724C14.7559 30.4136 14.5496 30.2602 14.3406 30.1123C12.8112 32.5911 12.0035 35.4398 12.0068 38.3439C12.0068 38.5836 12.0068 38.8232 12.0221 39.0615C12.0378 39.381 12.0617 39.7006 12.0941 40.0201C12.13 40.3533 12.1762 40.6847 12.2325 41.0143C12.3183 41.5183 12.429 42.0163 12.5647 42.5084C12.8415 42.5504 13.1184 42.5851 13.3952 42.6125C13.672 42.6412 13.9489 42.6631 14.2257 42.6768C14.1773 42.5262 14.1316 42.3742 14.0873 42.2222C13.9876 41.8497 13.9004 41.484 13.8271 41.1143ZM15.3206 42.6946H15.2528H14.8998H14.7877L15.0646 42.8822L15.3276 42.7001C15.4466 42.7001 15.5656 42.7001 15.6847 42.7001C15.5611 42.6974 15.4397 42.6956 15.3206 42.6946Z" fill="white"/>
<path fill-rule="evenodd" clip-rule="evenodd" d="M20.4934 41.9044C19.2535 42.2875 17.9737 42.5305 16.6785 42.6289H16.6245C16.5096 42.6371 16.3947 42.6467 16.2785 42.6535C16.1622 42.6604 16.0833 42.6645 15.985 42.6672L15.7774 42.6741H15.6777C15.5587 42.6741 15.4396 42.6741 15.3206 42.6741L15.0576 42.8562L14.7808 42.6686L14.4693 42.6576C14.4126 42.6576 14.3572 42.6576 14.3019 42.6494C14.2751 42.6508 14.2483 42.6508 14.2216 42.6494C13.9447 42.6357 13.6679 42.6138 13.3911 42.585C13.1142 42.5577 12.8374 42.523 12.5605 42.481C9.14155 41.9756 6.16689 40.498 4.15979 38.259C1.84817 35.6941 0.883381 32.2801 1.29034 28.1239C2.72446 27.6612 4.22244 27.4215 5.73087 27.4132H5.83884C6.06308 27.4132 6.28593 27.4186 6.50741 27.4296C6.76764 27.4392 7.02648 27.4584 7.28395 27.4844C9.82947 27.7302 12.2645 28.6356 14.3433 30.1096C14.5524 30.2575 14.7586 30.4108 14.9593 30.5697C15.16 30.7285 15.3746 30.8997 15.5642 31.0736C17.6623 32.9136 19.1836 35.3097 19.948 37.9783C20.0227 38.2367 20.0892 38.4987 20.1473 38.7643C20.2055 39.03 20.2581 39.2998 20.3051 39.5737C20.4314 40.3444 20.4943 41.1237 20.4934 41.9044Z" fill="url(#paint7_linear_605_1866)"/>
<path d="M15.2527 42.696H14.8997H14.7876L15.0644 42.8836L15.3274 42.7015L15.2527 42.696Z" fill="white"/>
<path d="M62.5995 18.5557V36.2898H39.5781V18.5557H42.8559V33.503H49.4627V18.5557H52.7405V33.503H59.3217V18.5557H62.5995ZM67.2776 22.7612H70.4786V31.6789L78.0329 22.7612H80.9522V36.2898H77.7512V27.3721L70.2225 36.2898H67.2776V22.7612ZM98.3692 22.7612V36.2898H95.1939V25.4467H88.459V36.2898H85.258V22.7612H98.3692ZM107.784 22.6092C109.799 22.6092 111.335 23.0906 112.394 24.0533C113.469 24.9992 114.007 26.4347 114.007 28.3601V36.2898H110.985V34.6431C110.593 35.2342 110.029 35.6903 109.295 36.0111C108.578 36.3151 107.707 36.4671 106.683 36.4671C105.659 36.4671 104.763 36.2983 103.994 35.9605C103.226 35.6058 102.629 35.1244 102.202 34.5164C101.792 33.8915 101.587 33.1905 101.587 32.4136C101.587 31.1976 102.04 30.2264 102.944 29.5002C103.866 28.757 105.309 28.3855 107.272 28.3855H110.806V28.1828C110.806 27.2369 110.516 26.5107 109.935 26.004C109.372 25.4974 108.527 25.244 107.4 25.244C106.632 25.244 105.872 25.3622 105.121 25.5987C104.387 25.8352 103.764 26.1645 103.252 26.5867L101.997 24.2813C102.714 23.7408 103.576 23.3271 104.583 23.0399C105.591 22.7527 106.658 22.6092 107.784 22.6092ZM107.349 34.1617C108.151 34.1617 108.86 33.9844 109.474 33.6297C110.106 33.2582 110.55 32.7345 110.806 32.059V30.4882H107.503C105.659 30.4882 104.737 31.0878 104.737 32.287C104.737 32.8612 104.967 33.3172 105.428 33.655C105.889 33.9929 106.53 34.1617 107.349 34.1617ZM133.649 36.5431C131.84 36.5431 130.201 36.1546 128.733 35.3778C127.282 34.5839 126.138 33.4945 125.301 32.1096C124.482 30.7247 124.072 29.1623 124.072 27.4228C124.072 25.6832 124.49 24.1208 125.327 22.7359C126.163 21.351 127.307 20.27 128.758 19.4931C130.226 18.6992 131.865 18.3024 133.675 18.3024C135.143 18.3024 136.483 18.5557 137.695 19.0624C138.907 19.5691 139.932 20.3038 140.768 21.2665L138.617 23.2679C137.32 21.883 135.724 21.1905 133.829 21.1905C132.6 21.1905 131.498 21.4607 130.525 22.0012C129.552 22.5247 128.792 23.2594 128.246 24.2053C127.7 25.1512 127.427 26.2236 127.427 27.4228C127.427 28.622 127.7 29.6944 128.246 30.6402C128.792 31.5861 129.552 32.3291 130.525 32.8697C131.498 33.3932 132.6 33.655 133.829 33.655C135.724 33.655 137.32 32.9542 138.617 31.5523L140.768 33.579C139.932 34.5417 138.899 35.2764 137.67 35.7831C136.458 36.2898 135.118 36.5431 133.649 36.5431ZM156.407 22.7612L150.005 37.3792C149.407 38.8486 148.682 39.8788 147.828 40.47C146.975 41.078 145.943 41.382 144.73 41.382C144.048 41.382 143.372 41.2722 142.706 41.0527C142.04 40.8331 141.495 40.5291 141.067 40.1406L142.348 37.8099C142.655 38.097 143.014 38.325 143.423 38.4939C143.851 38.6627 144.277 38.7472 144.704 38.7472C145.267 38.7472 145.728 38.6037 146.087 38.3166C146.463 38.0294 146.804 37.548 147.111 36.8725L147.342 36.3405L141.375 22.7612H144.704L149.006 32.7683L153.334 22.7612H156.407Z" fill="#17E269"/>
<path d="M62.5995 18.5557V36.2898H39.5781V18.5557H42.8559V33.503H49.4627V18.5557H52.7405V33.503H59.3217V18.5557H62.5995ZM67.2776 22.7612H70.4786V31.6789L78.0329 22.7612H80.9522V36.2898H77.7512V27.3721L70.2225 36.2898H67.2776V22.7612ZM98.3692 22.7612V36.2898H95.1939V25.4467H88.459V36.2898H85.258V22.7612H98.3692ZM107.784 22.6092C109.799 22.6092 111.335 23.0906 112.394 24.0533C113.469 24.9992 114.007 26.4347 114.007 28.3601V36.2898H110.985V34.6431C110.593 35.2342 110.029 35.6903 109.295 36.0111C108.578 36.3151 107.707 36.4671 106.683 36.4671C105.659 36.4671 104.763 36.2983 103.994 35.9605C103.226 35.6058 102.629 35.1244 102.202 34.5164C101.792 33.8915 101.587 33.1905 101.587 32.4136C101.587 31.1976 102.04 30.2264 102.944 29.5002C103.866 28.757 105.309 28.3855 107.272 28.3855H110.806V28.1828C110.806 27.2369 110.516 26.5107 109.935 26.004C109.372 25.4974 108.527 25.244 107.4 25.244C106.632 25.244 105.872 25.3622 105.121 25.5987C104.387 25.8352 103.764 26.1645 103.252 26.5867L101.997 24.2813C102.714 23.7408 103.576 23.3271 104.583 23.0399C105.591 22.7527 106.658 22.6092 107.784 22.6092ZM107.349 34.1617C108.151 34.1617 108.86 33.9844 109.474 33.6297C110.106 33.2582 110.55 32.7345 110.806 32.059V30.4882H107.503C105.659 30.4882 104.737 31.0878 104.737 32.287C104.737 32.8612 104.967 33.3172 105.428 33.655C105.889 33.9929 106.53 34.1617 107.349 34.1617ZM133.649 36.5431C131.84 36.5431 130.201 36.1546 128.733 35.3778C127.282 34.5839 126.138 33.4945 125.301 32.1096C124.482 30.7247 124.072 29.1623 124.072 27.4228C124.072 25.6832 124.49 24.1208 125.327 22.7359C126.163 21.351 127.307 20.27 128.758 19.4931C130.226 18.6992 131.865 18.3024 133.675 18.3024C135.143 18.3024 136.483 18.5557 137.695 19.0624C138.907 19.5691 139.932 20.3038 140.768 21.2665L138.617 23.2679C137.32 21.883 135.724 21.1905 133.829 21.1905C132.6 21.1905 131.498 21.4607 130.525 22.0012C129.552 22.5247 128.792 23.2594 128.246 24.2053C127.7 25.1512 127.427 26.2236 127.427 27.4228C127.427 28.622 127.7 29.6944 128.246 30.6402C128.792 31.5861 129.552 32.3291 130.525 32.8697C131.498 33.3932 132.6 33.655 133.829 33.655C135.724 33.655 137.32 32.9542 138.617 31.5523L140.768 33.579C139.932 34.5417 138.899 35.2764 137.67 35.7831C136.458 36.2898 135.118 36.5431 133.649 36.5431ZM156.407 22.7612L150.005 37.3792C149.407 38.8486 148.682 39.8788 147.828 40.47C146.975 41.078 145.943 41.382 144.73 41.382C144.048 41.382 143.372 41.2722 142.706 41.0527C142.04 40.8331 141.495 40.5291 141.067 40.1406L142.348 37.8099C142.655 38.097 143.014 38.325 143.423 38.4939C143.851 38.6627 144.277 38.7472 144.704 38.7472C145.267 38.7472 145.728 38.6037 146.087 38.3166C146.463 38.0294 146.804 37.548 147.111 36.8725L147.342 36.3405L141.375 22.7612H144.704L149.006 32.7683L153.334 22.7612H156.407Z" fill="url(#paint8_linear_605_1866)"/>
<path d="M62.5995 18.5557V36.2898H39.5781V18.5557H42.8559V33.503H49.4627V18.5557H52.7405V33.503H59.3217V18.5557H62.5995ZM67.2776 22.7612H70.4786V31.6789L78.0329 22.7612H80.9522V36.2898H77.7512V27.3721L70.2225 36.2898H67.2776V22.7612ZM98.3692 22.7612V36.2898H95.1939V25.4467H88.459V36.2898H85.258V22.7612H98.3692ZM107.784 22.6092C109.799 22.6092 111.335 23.0906 112.394 24.0533C113.469 24.9992 114.007 26.4347 114.007 28.3601V36.2898H110.985V34.6431C110.593 35.2342 110.029 35.6903 109.295 36.0111C108.578 36.3151 107.707 36.4671 106.683 36.4671C105.659 36.4671 104.763 36.2983 103.994 35.9605C103.226 35.6058 102.629 35.1244 102.202 34.5164C101.792 33.8915 101.587 33.1905 101.587 32.4136C101.587 31.1976 102.04 30.2264 102.944 29.5002C103.866 28.757 105.309 28.3855 107.272 28.3855H110.806V28.1828C110.806 27.2369 110.516 26.5107 109.935 26.004C109.372 25.4974 108.527 25.244 107.4 25.244C106.632 25.244 105.872 25.3622 105.121 25.5987C104.387 25.8352 103.764 26.1645 103.252 26.5867L101.997 24.2813C102.714 23.7408 103.576 23.3271 104.583 23.0399C105.591 22.7527 106.658 22.6092 107.784 22.6092ZM107.349 34.1617C108.151 34.1617 108.86 33.9844 109.474 33.6297C110.106 33.2582 110.55 32.7345 110.806 32.059V30.4882H107.503C105.659 30.4882 104.737 31.0878 104.737 32.287C104.737 32.8612 104.967 33.3172 105.428 33.655C105.889 33.9929 106.53 34.1617 107.349 34.1617ZM133.649 36.5431C131.84 36.5431 130.201 36.1546 128.733 35.3778C127.282 34.5839 126.138 33.4945 125.301 32.1096C124.482 30.7247 124.072 29.1623 124.072 27.4228C124.072 25.6832 124.49 24.1208 125.327 22.7359C126.163 21.351 127.307 20.27 128.758 19.4931C130.226 18.6992 131.865 18.3024 133.675 18.3024C135.143 18.3024 136.483 18.5557 137.695 19.0624C138.907 19.5691 139.932 20.3038 140.768 21.2665L138.617 23.2679C137.32 21.883 135.724 21.1905 133.829 21.1905C132.6 21.1905 131.498 21.4607 130.525 22.0012C129.552 22.5247 128.792 23.2594 128.246 24.2053C127.7 25.1512 127.427 26.2236 127.427 27.4228C127.427 28.622 127.7 29.6944 128.246 30.6402C128.792 31.5861 129.552 32.3291 130.525 32.8697C131.498 33.3932 132.6 33.655 133.829 33.655C135.724 33.655 137.32 32.9542 138.617 31.5523L140.768 33.579C139.932 34.5417 138.899 35.2764 137.67 35.7831C136.458 36.2898 135.118 36.5431 133.649 36.5431ZM156.407 22.7612L150.005 37.3792C149.407 38.8486 148.682 39.8788 147.828 40.47C146.975 41.078 145.943 41.382 144.73 41.382C144.048 41.382 143.372 41.2722 142.706 41.0527C142.04 40.8331 141.495 40.5291 141.067 40.1406L142.348 37.8099C142.655 38.097 143.014 38.325 143.423 38.4939C143.851 38.6627 144.277 38.7472 144.704 38.7472C145.267 38.7472 145.728 38.6037 146.087 38.3166C146.463 38.0294 146.804 37.548 147.111 36.8725L147.342 36.3405L141.375 22.7612H144.704L149.006 32.7683L153.334 22.7612H156.407Z" fill="url(#paint9_linear_605_1866)"/>
<path d="M62.5995 18.5557V36.2898H39.5781V18.5557H42.8559V33.503H49.4627V18.5557H52.7405V33.503H59.3217V18.5557H62.5995ZM67.2776 22.7612H70.4786V31.6789L78.0329 22.7612H80.9522V36.2898H77.7512V27.3721L70.2225 36.2898H67.2776V22.7612ZM98.3692 22.7612V36.2898H95.1939V25.4467H88.459V36.2898H85.258V22.7612H98.3692ZM107.784 22.6092C109.799 22.6092 111.335 23.0906 112.394 24.0533C113.469 24.9992 114.007 26.4347 114.007 28.3601V36.2898H110.985V34.6431C110.593 35.2342 110.029 35.6903 109.295 36.0111C108.578 36.3151 107.707 36.4671 106.683 36.4671C105.659 36.4671 104.763 36.2983 103.994 35.9605C103.226 35.6058 102.629 35.1244 102.202 34.5164C101.792 33.8915 101.587 33.1905 101.587 32.4136C101.587 31.1976 102.04 30.2264 102.944 29.5002C103.866 28.757 105.309 28.3855 107.272 28.3855H110.806V28.1828C110.806 27.2369 110.516 26.5107 109.935 26.004C109.372 25.4974 108.527 25.244 107.4 25.244C106.632 25.244 105.872 25.3622 105.121 25.5987C104.387 25.8352 103.764 26.1645 103.252 26.5867L101.997 24.2813C102.714 23.7408 103.576 23.3271 104.583 23.0399C105.591 22.7527 106.658 22.6092 107.784 22.6092ZM107.349 34.1617C108.151 34.1617 108.86 33.9844 109.474 33.6297C110.106 33.2582 110.55 32.7345 110.806 32.059V30.4882H107.503C105.659 30.4882 104.737 31.0878 104.737 32.287C104.737 32.8612 104.967 33.3172 105.428 33.655C105.889 33.9929 106.53 34.1617 107.349 34.1617ZM133.649 36.5431C131.84 36.5431 130.201 36.1546 128.733 35.3778C127.282 34.5839 126.138 33.4945 125.301 32.1096C124.482 30.7247 124.072 29.1623 124.072 27.4228C124.072 25.6832 124.49 24.1208 125.327 22.7359C126.163 21.351 127.307 20.27 128.758 19.4931C130.226 18.6992 131.865 18.3024 133.675 18.3024C135.143 18.3024 136.483 18.5557 137.695 19.0624C138.907 19.5691 139.932 20.3038 140.768 21.2665L138.617 23.2679C137.32 21.883 135.724 21.1905 133.829 21.1905C132.6 21.1905 131.498 21.4607 130.525 22.0012C129.552 22.5247 128.792 23.2594 128.246 24.2053C127.7 25.1512 127.427 26.2236 127.427 27.4228C127.427 28.622 127.7 29.6944 128.246 30.6402C128.792 31.5861 129.552 32.3291 130.525 32.8697C131.498 33.3932 132.6 33.655 133.829 33.655C135.724 33.655 137.32 32.9542 138.617 31.5523L140.768 33.579C139.932 34.5417 138.899 35.2764 137.67 35.7831C136.458 36.2898 135.118 36.5431 133.649 36.5431ZM156.407 22.7612L150.005 37.3792C149.407 38.8486 148.682 39.8788 147.828 40.47C146.975 41.078 145.943 41.382 144.73 41.382C144.048 41.382 143.372 41.2722 142.706 41.0527C142.04 40.8331 141.495 40.5291 141.067 40.1406L142.348 37.8099C142.655 38.097 143.014 38.325 143.423 38.4939C143.851 38.6627 144.277 38.7472 144.704 38.7472C145.267 38.7472 145.728 38.6037 146.087 38.3166C146.463 38.0294 146.804 37.548 147.111 36.8725L147.342 36.3405L141.375 22.7612H144.704L149.006 32.7683L153.334 22.7612H156.407Z" fill="white"/>
<path d="M41.6938 10.7911C40.9113 10.7911 40.2026 10.6231 39.5676 10.2871C38.9402 9.94386 38.4455 9.47278 38.0838 8.87389C37.7294 8.27499 37.5522 7.5994 37.5522 6.84713C37.5522 6.09487 37.7332 5.41927 38.0949 4.82038C38.4565 4.22149 38.9513 3.75405 39.5787 3.41809C40.2137 3.07481 40.9224 2.90318 41.7049 2.90318C42.3398 2.90318 42.9192 3.01274 43.4434 3.23185C43.9676 3.45096 44.4106 3.76866 44.7723 4.18497L43.8421 5.05045C43.2811 4.45155 42.5908 4.1521 41.7713 4.1521C41.2398 4.1521 40.7636 4.26896 40.3428 4.50268C39.922 4.72908 39.5935 5.04679 39.3573 5.4558C39.121 5.8648 39.0029 6.32857 39.0029 6.84713C39.0029 7.36569 39.121 7.82946 39.3573 8.23847C39.5935 8.64748 39.922 8.96883 40.3428 9.20255C40.7636 9.42895 41.2398 9.54216 41.7713 9.54216C42.5908 9.54216 43.2811 9.23907 43.8421 8.63287L44.7723 9.5093C44.4106 9.9256 43.9639 10.2433 43.4324 10.4624C42.9082 10.6815 42.3287 10.7911 41.6938 10.7911ZM48.1035 4.7656C48.9746 4.7656 49.639 4.97376 50.0967 5.39006C50.5618 5.79907 50.7944 6.41987 50.7944 7.25248V10.6815H49.4877V9.96943C49.3179 10.2251 49.0742 10.4223 48.7568 10.561C48.4468 10.6925 48.0703 10.7582 47.6273 10.7582C47.1844 10.7582 46.7968 10.6852 46.4646 10.5391C46.1324 10.3857 45.874 10.1776 45.6894 9.91465C45.5123 9.64442 45.4237 9.34131 45.4237 9.00535C45.4237 8.47949 45.6193 8.05953 46.0106 7.74548C46.4092 7.42411 47.0329 7.26344 47.882 7.26344H49.4102V7.1758C49.4102 6.76679 49.2846 6.45274 49.0337 6.23363C48.7901 6.01452 48.4246 5.90497 47.9374 5.90497C47.6052 5.90497 47.2766 5.95609 46.9518 6.05834C46.6343 6.1606 46.3649 6.30302 46.1435 6.4856L45.6008 5.48866C45.9109 5.25494 46.2837 5.07601 46.7193 4.95185C47.1548 4.82768 47.6163 4.7656 48.1035 4.7656ZM47.9152 9.76127C48.2621 9.76127 48.5686 9.68458 48.8344 9.53121C49.1075 9.37053 49.2994 9.14411 49.4102 8.85197V8.17274H47.9817C47.1844 8.17274 46.7857 8.43201 46.7857 8.95057C46.7857 9.19889 46.8854 9.39609 47.0847 9.54216C47.284 9.68824 47.5609 9.76127 47.9152 9.76127ZM52.5072 4.83134H53.8914V7.20866H56.8702V4.83134H58.2544V10.6815H56.8702V8.36994H53.8914V10.6815H52.5072V4.83134ZM62.3132 4.7656C63.1843 4.7656 63.8487 4.97376 64.3064 5.39006C64.7715 5.79907 65.0041 6.41987 65.0041 7.25248V10.6815H63.6974V9.96943C63.5276 10.2251 63.2839 10.4223 62.9665 10.561C62.6565 10.6925 62.28 10.7582 61.837 10.7582C61.3941 10.7582 61.0065 10.6852 60.6743 10.5391C60.3421 10.3857 60.0837 10.1776 59.8991 9.91465C59.722 9.64442 59.6334 9.34131 59.6334 9.00535C59.6334 8.47949 59.829 8.05953 60.2203 7.74548C60.6189 7.42411 61.2428 7.26344 62.0917 7.26344H63.6199V7.1758C63.6199 6.76679 63.4943 6.45274 63.2434 6.23363C62.9998 6.01452 62.6343 5.90497 62.1471 5.90497C61.8149 5.90497 61.4864 5.95609 61.1615 6.05834C60.8441 6.1606 60.5746 6.30302 60.3532 6.4856L59.8105 5.48866C60.1206 5.25494 60.4934 5.07601 60.929 4.95185C61.3646 4.82768 61.826 4.7656 62.3132 4.7656ZM62.1249 9.76127C62.472 9.76127 62.7783 9.68458 63.0441 9.53121C63.3172 9.37053 63.5091 9.14411 63.6199 8.85197V8.17274H62.1914C61.3941 8.17274 60.9954 8.43201 60.9954 8.95057C60.9954 9.19889 61.0951 9.39609 61.2944 9.54216C61.4937 9.68824 61.7706 9.76127 62.1249 9.76127ZM71.4011 5.99261H69.3303V10.6815H67.9461V5.99261H65.8642V4.83134H71.4011V5.99261ZM74.7811 10.7582C74.1832 10.7582 73.6443 10.6304 73.1644 10.3748C72.6845 10.1191 72.308 9.76493 72.0349 9.3121C71.7691 8.85197 71.6362 8.33341 71.6362 7.75643C71.6362 7.17945 71.7691 6.66455 72.0349 6.21172C72.308 5.75889 72.6845 5.40468 73.1644 5.14904C73.6443 4.89341 74.1832 4.7656 74.7811 4.7656C75.3865 4.7656 75.9291 4.89341 76.409 5.14904C76.8889 5.40468 77.2616 5.75889 77.5274 6.21172C77.8005 6.66455 77.9371 7.17945 77.9371 7.75643C77.9371 8.33341 77.8005 8.85197 77.5274 9.3121C77.2616 9.76493 76.8889 10.1191 76.409 10.3748C75.9291 10.6304 75.3865 10.7582 74.7811 10.7582ZM74.7811 9.58599C75.2905 9.58599 75.7113 9.418 76.0435 9.08204C76.3758 8.74608 76.5419 8.3042 76.5419 7.75643C76.5419 7.20866 76.3758 6.76679 76.0435 6.43083C75.7113 6.09487 75.2905 5.92688 74.7811 5.92688C74.2718 5.92688 73.851 6.09487 73.5188 6.43083C73.1939 6.76679 73.0315 7.20866 73.0315 7.75643C73.0315 8.3042 73.1939 8.74608 73.5188 9.08204C73.851 9.418 74.2718 9.58599 74.7811 9.58599ZM82.5824 4.7656C83.1582 4.7656 83.6712 4.88977 84.1216 5.13809C84.5792 5.38641 84.9373 5.73698 85.1958 6.18981C85.4541 6.64264 85.5834 7.16484 85.5834 7.75643C85.5834 8.34802 85.4541 8.87389 85.1958 9.33401C84.9373 9.78684 84.5792 10.1374 84.1216 10.3857C83.6712 10.634 83.1582 10.7582 82.5824 10.7582C81.7851 10.7582 81.1539 10.4953 80.6888 9.96943V12.8069H79.3046V4.83134H80.6224V5.59822C80.8512 5.32067 81.1317 5.11252 81.464 4.97376C81.8035 4.83499 82.1763 4.7656 82.5824 4.7656ZM82.4274 9.58599C82.9368 9.58599 83.3538 9.418 83.6787 9.08204C84.0109 8.74608 84.177 8.3042 84.177 7.75643C84.177 7.20866 84.0109 6.76679 83.6787 6.43083C83.3538 6.09487 82.9368 5.92688 82.4274 5.92688C82.0952 5.92688 81.7962 6.00357 81.5304 6.15694C81.2646 6.30302 81.0542 6.51481 80.8992 6.79236C80.7442 7.0699 80.6666 7.39125 80.6666 7.75643C80.6666 8.12162 80.7442 8.44297 80.8992 8.72051C81.0542 8.99805 81.2646 9.2135 81.5304 9.36688C81.7962 9.51296 82.0952 9.58599 82.4274 9.58599ZM86.9609 4.83134H88.3451V8.68764L91.6118 4.83134H92.8742V10.6815H91.49V6.82522L88.2344 10.6815H86.9609V4.83134ZM94.7363 4.83134H96.1205V8.68764L99.3872 4.83134H100.65V10.6815H99.2654V6.82522L96.0097 10.6815H94.7363V4.83134ZM97.6043 4.14115C97.0064 4.14115 96.5486 4.00603 96.2312 3.7358C95.9212 3.45825 95.7624 3.05656 95.755 2.5307H96.6742C96.6815 2.79363 96.7627 3.00178 96.9178 3.15516C97.0801 3.30854 97.3054 3.38522 97.5933 3.38522C97.8738 3.38522 98.0953 3.30854 98.2577 3.15516C98.4275 3.00178 98.5161 2.79363 98.5235 2.5307H99.4647C99.4574 3.05656 99.2949 3.45825 98.9775 3.7358C98.6601 4.00603 98.2023 4.14115 97.6043 4.14115Z" fill="black"/>
<path d="M41.6938 10.7911C40.9113 10.7911 40.2026 10.6231 39.5676 10.2871C38.9402 9.94386 38.4455 9.47278 38.0838 8.87389C37.7294 8.27499 37.5522 7.5994 37.5522 6.84713C37.5522 6.09487 37.7332 5.41927 38.0949 4.82038C38.4565 4.22149 38.9513 3.75405 39.5787 3.41809C40.2137 3.07481 40.9224 2.90318 41.7049 2.90318C42.3398 2.90318 42.9192 3.01274 43.4434 3.23185C43.9676 3.45096 44.4106 3.76866 44.7723 4.18497L43.8421 5.05045C43.2811 4.45155 42.5908 4.1521 41.7713 4.1521C41.2398 4.1521 40.7636 4.26896 40.3428 4.50268C39.922 4.72908 39.5935 5.04679 39.3573 5.4558C39.121 5.8648 39.0029 6.32857 39.0029 6.84713C39.0029 7.36569 39.121 7.82946 39.3573 8.23847C39.5935 8.64748 39.922 8.96883 40.3428 9.20255C40.7636 9.42895 41.2398 9.54216 41.7713 9.54216C42.5908 9.54216 43.2811 9.23907 43.8421 8.63287L44.7723 9.5093C44.4106 9.9256 43.9639 10.2433 43.4324 10.4624C42.9082 10.6815 42.3287 10.7911 41.6938 10.7911ZM48.1035 4.7656C48.9746 4.7656 49.639 4.97376 50.0967 5.39006C50.5618 5.79907 50.7944 6.41987 50.7944 7.25248V10.6815H49.4877V9.96943C49.3179 10.2251 49.0742 10.4223 48.7568 10.561C48.4468 10.6925 48.0703 10.7582 47.6273 10.7582C47.1844 10.7582 46.7968 10.6852 46.4646 10.5391C46.1324 10.3857 45.874 10.1776 45.6894 9.91465C45.5123 9.64442 45.4237 9.34131 45.4237 9.00535C45.4237 8.47949 45.6193 8.05953 46.0106 7.74548C46.4092 7.42411 47.0329 7.26344 47.882 7.26344H49.4102V7.1758C49.4102 6.76679 49.2846 6.45274 49.0337 6.23363C48.7901 6.01452 48.4246 5.90497 47.9374 5.90497C47.6052 5.90497 47.2766 5.95609 46.9518 6.05834C46.6343 6.1606 46.3649 6.30302 46.1435 6.4856L45.6008 5.48866C45.9109 5.25494 46.2837 5.07601 46.7193 4.95185C47.1548 4.82768 47.6163 4.7656 48.1035 4.7656ZM47.9152 9.76127C48.2621 9.76127 48.5686 9.68458 48.8344 9.53121C49.1075 9.37053 49.2994 9.14411 49.4102 8.85197V8.17274H47.9817C47.1844 8.17274 46.7857 8.43201 46.7857 8.95057C46.7857 9.19889 46.8854 9.39609 47.0847 9.54216C47.284 9.68824 47.5609 9.76127 47.9152 9.76127ZM52.5072 4.83134H53.8914V7.20866H56.8702V4.83134H58.2544V10.6815H56.8702V8.36994H53.8914V10.6815H52.5072V4.83134ZM62.3132 4.7656C63.1843 4.7656 63.8487 4.97376 64.3064 5.39006C64.7715 5.79907 65.0041 6.41987 65.0041 7.25248V10.6815H63.6974V9.96943C63.5276 10.2251 63.2839 10.4223 62.9665 10.561C62.6565 10.6925 62.28 10.7582 61.837 10.7582C61.3941 10.7582 61.0065 10.6852 60.6743 10.5391C60.3421 10.3857 60.0837 10.1776 59.8991 9.91465C59.722 9.64442 59.6334 9.34131 59.6334 9.00535C59.6334 8.47949 59.829 8.05953 60.2203 7.74548C60.6189 7.42411 61.2428 7.26344 62.0917 7.26344H63.6199V7.1758C63.6199 6.76679 63.4943 6.45274 63.2434 6.23363C62.9998 6.01452 62.6343 5.90497 62.1471 5.90497C61.8149 5.90497 61.4864 5.95609 61.1615 6.05834C60.8441 6.1606 60.5746 6.30302 60.3532 6.4856L59.8105 5.48866C60.1206 5.25494 60.4934 5.07601 60.929 4.95185C61.3646 4.82768 61.826 4.7656 62.3132 4.7656ZM62.1249 9.76127C62.472 9.76127 62.7783 9.68458 63.0441 9.53121C63.3172 9.37053 63.5091 9.14411 63.6199 8.85197V8.17274H62.1914C61.3941 8.17274 60.9954 8.43201 60.9954 8.95057C60.9954 9.19889 61.0951 9.39609 61.2944 9.54216C61.4937 9.68824 61.7706 9.76127 62.1249 9.76127ZM71.4011 5.99261H69.3303V10.6815H67.9461V5.99261H65.8642V4.83134H71.4011V5.99261ZM74.7811 10.7582C74.1832 10.7582 73.6443 10.6304 73.1644 10.3748C72.6845 10.1191 72.308 9.76493 72.0349 9.3121C71.7691 8.85197 71.6362 8.33341 71.6362 7.75643C71.6362 7.17945 71.7691 6.66455 72.0349 6.21172C72.308 5.75889 72.6845 5.40468 73.1644 5.14904C73.6443 4.89341 74.1832 4.7656 74.7811 4.7656C75.3865 4.7656 75.9291 4.89341 76.409 5.14904C76.8889 5.40468 77.2616 5.75889 77.5274 6.21172C77.8005 6.66455 77.9371 7.17945 77.9371 7.75643C77.9371 8.33341 77.8005 8.85197 77.5274 9.3121C77.2616 9.76493 76.8889 10.1191 76.409 10.3748C75.9291 10.6304 75.3865 10.7582 74.7811 10.7582ZM74.7811 9.58599C75.2905 9.58599 75.7113 9.418 76.0435 9.08204C76.3758 8.74608 76.5419 8.3042 76.5419 7.75643C76.5419 7.20866 76.3758 6.76679 76.0435 6.43083C75.7113 6.09487 75.2905 5.92688 74.7811 5.92688C74.2718 5.92688 73.851 6.09487 73.5188 6.43083C73.1939 6.76679 73.0315 7.20866 73.0315 7.75643C73.0315 8.3042 73.1939 8.74608 73.5188 9.08204C73.851 9.418 74.2718 9.58599 74.7811 9.58599ZM82.5824 4.7656C83.1582 4.7656 83.6712 4.88977 84.1216 5.13809C84.5792 5.38641 84.9373 5.73698 85.1958 6.18981C85.4541 6.64264 85.5834 7.16484 85.5834 7.75643C85.5834 8.34802 85.4541 8.87389 85.1958 9.33401C84.9373 9.78684 84.5792 10.1374 84.1216 10.3857C83.6712 10.634 83.1582 10.7582 82.5824 10.7582C81.7851 10.7582 81.1539 10.4953 80.6888 9.96943V12.8069H79.3046V4.83134H80.6224V5.59822C80.8512 5.32067 81.1317 5.11252 81.464 4.97376C81.8035 4.83499 82.1763 4.7656 82.5824 4.7656ZM82.4274 9.58599C82.9368 9.58599 83.3538 9.418 83.6787 9.08204C84.0109 8.74608 84.177 8.3042 84.177 7.75643C84.177 7.20866 84.0109 6.76679 83.6787 6.43083C83.3538 6.09487 82.9368 5.92688 82.4274 5.92688C82.0952 5.92688 81.7962 6.00357 81.5304 6.15694C81.2646 6.30302 81.0542 6.51481 80.8992 6.79236C80.7442 7.0699 80.6666 7.39125 80.6666 7.75643C80.6666 8.12162 80.7442 8.44297 80.8992 8.72051C81.0542 8.99805 81.2646 9.2135 81.5304 9.36688C81.7962 9.51296 82.0952 9.58599 82.4274 9.58599ZM86.9609 4.83134H88.3451V8.68764L91.6118 4.83134H92.8742V10.6815H91.49V6.82522L88.2344 10.6815H86.9609V4.83134ZM94.7363 4.83134H96.1205V8.68764L99.3872 4.83134H100.65V10.6815H99.2654V6.82522L96.0097 10.6815H94.7363V4.83134ZM97.6043 4.14115C97.0064 4.14115 96.5486 4.00603 96.2312 3.7358C95.9212 3.45825 95.7624 3.05656 95.755 2.5307H96.6742C96.6815 2.79363 96.7627 3.00178 96.9178 3.15516C97.0801 3.30854 97.3054 3.38522 97.5933 3.38522C97.8738 3.38522 98.0953 3.30854 98.2577 3.15516C98.4275 3.00178 98.5161 2.79363 98.5235 2.5307H99.4647C99.4574 3.05656 99.2949 3.45825 98.9775 3.7358C98.6601 4.00603 98.2023 4.14115 97.6043 4.14115Z" fill="url(#paint10_linear_605_1866)"/>
<path d="M41.6938 10.7911C40.9113 10.7911 40.2026 10.6231 39.5676 10.2871C38.9402 9.94386 38.4455 9.47278 38.0838 8.87389C37.7294 8.27499 37.5522 7.5994 37.5522 6.84713C37.5522 6.09487 37.7332 5.41927 38.0949 4.82038C38.4565 4.22149 38.9513 3.75405 39.5787 3.41809C40.2137 3.07481 40.9224 2.90318 41.7049 2.90318C42.3398 2.90318 42.9192 3.01274 43.4434 3.23185C43.9676 3.45096 44.4106 3.76866 44.7723 4.18497L43.8421 5.05045C43.2811 4.45155 42.5908 4.1521 41.7713 4.1521C41.2398 4.1521 40.7636 4.26896 40.3428 4.50268C39.922 4.72908 39.5935 5.04679 39.3573 5.4558C39.121 5.8648 39.0029 6.32857 39.0029 6.84713C39.0029 7.36569 39.121 7.82946 39.3573 8.23847C39.5935 8.64748 39.922 8.96883 40.3428 9.20255C40.7636 9.42895 41.2398 9.54216 41.7713 9.54216C42.5908 9.54216 43.2811 9.23907 43.8421 8.63287L44.7723 9.5093C44.4106 9.9256 43.9639 10.2433 43.4324 10.4624C42.9082 10.6815 42.3287 10.7911 41.6938 10.7911ZM48.1035 4.7656C48.9746 4.7656 49.639 4.97376 50.0967 5.39006C50.5618 5.79907 50.7944 6.41987 50.7944 7.25248V10.6815H49.4877V9.96943C49.3179 10.2251 49.0742 10.4223 48.7568 10.561C48.4468 10.6925 48.0703 10.7582 47.6273 10.7582C47.1844 10.7582 46.7968 10.6852 46.4646 10.5391C46.1324 10.3857 45.874 10.1776 45.6894 9.91465C45.5123 9.64442 45.4237 9.34131 45.4237 9.00535C45.4237 8.47949 45.6193 8.05953 46.0106 7.74548C46.4092 7.42411 47.0329 7.26344 47.882 7.26344H49.4102V7.1758C49.4102 6.76679 49.2846 6.45274 49.0337 6.23363C48.7901 6.01452 48.4246 5.90497 47.9374 5.90497C47.6052 5.90497 47.2766 5.95609 46.9518 6.05834C46.6343 6.1606 46.3649 6.30302 46.1435 6.4856L45.6008 5.48866C45.9109 5.25494 46.2837 5.07601 46.7193 4.95185C47.1548 4.82768 47.6163 4.7656 48.1035 4.7656ZM47.9152 9.76127C48.2621 9.76127 48.5686 9.68458 48.8344 9.53121C49.1075 9.37053 49.2994 9.14411 49.4102 8.85197V8.17274H47.9817C47.1844 8.17274 46.7857 8.43201 46.7857 8.95057C46.7857 9.19889 46.8854 9.39609 47.0847 9.54216C47.284 9.68824 47.5609 9.76127 47.9152 9.76127ZM52.5072 4.83134H53.8914V7.20866H56.8702V4.83134H58.2544V10.6815H56.8702V8.36994H53.8914V10.6815H52.5072V4.83134ZM62.3132 4.7656C63.1843 4.7656 63.8487 4.97376 64.3064 5.39006C64.7715 5.79907 65.0041 6.41987 65.0041 7.25248V10.6815H63.6974V9.96943C63.5276 10.2251 63.2839 10.4223 62.9665 10.561C62.6565 10.6925 62.28 10.7582 61.837 10.7582C61.3941 10.7582 61.0065 10.6852 60.6743 10.5391C60.3421 10.3857 60.0837 10.1776 59.8991 9.91465C59.722 9.64442 59.6334 9.34131 59.6334 9.00535C59.6334 8.47949 59.829 8.05953 60.2203 7.74548C60.6189 7.42411 61.2428 7.26344 62.0917 7.26344H63.6199V7.1758C63.6199 6.76679 63.4943 6.45274 63.2434 6.23363C62.9998 6.01452 62.6343 5.90497 62.1471 5.90497C61.8149 5.90497 61.4864 5.95609 61.1615 6.05834C60.8441 6.1606 60.5746 6.30302 60.3532 6.4856L59.8105 5.48866C60.1206 5.25494 60.4934 5.07601 60.929 4.95185C61.3646 4.82768 61.826 4.7656 62.3132 4.7656ZM62.1249 9.76127C62.472 9.76127 62.7783 9.68458 63.0441 9.53121C63.3172 9.37053 63.5091 9.14411 63.6199 8.85197V8.17274H62.1914C61.3941 8.17274 60.9954 8.43201 60.9954 8.95057C60.9954 9.19889 61.0951 9.39609 61.2944 9.54216C61.4937 9.68824 61.7706 9.76127 62.1249 9.76127ZM71.4011 5.99261H69.3303V10.6815H67.9461V5.99261H65.8642V4.83134H71.4011V5.99261ZM74.7811 10.7582C74.1832 10.7582 73.6443 10.6304 73.1644 10.3748C72.6845 10.1191 72.308 9.76493 72.0349 9.3121C71.7691 8.85197 71.6362 8.33341 71.6362 7.75643C71.6362 7.17945 71.7691 6.66455 72.0349 6.21172C72.308 5.75889 72.6845 5.40468 73.1644 5.14904C73.6443 4.89341 74.1832 4.7656 74.7811 4.7656C75.3865 4.7656 75.9291 4.89341 76.409 5.14904C76.8889 5.40468 77.2616 5.75889 77.5274 6.21172C77.8005 6.66455 77.9371 7.17945 77.9371 7.75643C77.9371 8.33341 77.8005 8.85197 77.5274 9.3121C77.2616 9.76493 76.8889 10.1191 76.409 10.3748C75.9291 10.6304 75.3865 10.7582 74.7811 10.7582ZM74.7811 9.58599C75.2905 9.58599 75.7113 9.418 76.0435 9.08204C76.3758 8.74608 76.5419 8.3042 76.5419 7.75643C76.5419 7.20866 76.3758 6.76679 76.0435 6.43083C75.7113 6.09487 75.2905 5.92688 74.7811 5.92688C74.2718 5.92688 73.851 6.09487 73.5188 6.43083C73.1939 6.76679 73.0315 7.20866 73.0315 7.75643C73.0315 8.3042 73.1939 8.74608 73.5188 9.08204C73.851 9.418 74.2718 9.58599 74.7811 9.58599ZM82.5824 4.7656C83.1582 4.7656 83.6712 4.88977 84.1216 5.13809C84.5792 5.38641 84.9373 5.73698 85.1958 6.18981C85.4541 6.64264 85.5834 7.16484 85.5834 7.75643C85.5834 8.34802 85.4541 8.87389 85.1958 9.33401C84.9373 9.78684 84.5792 10.1374 84.1216 10.3857C83.6712 10.634 83.1582 10.7582 82.5824 10.7582C81.7851 10.7582 81.1539 10.4953 80.6888 9.96943V12.8069H79.3046V4.83134H80.6224V5.59822C80.8512 5.32067 81.1317 5.11252 81.464 4.97376C81.8035 4.83499 82.1763 4.7656 82.5824 4.7656ZM82.4274 9.58599C82.9368 9.58599 83.3538 9.418 83.6787 9.08204C84.0109 8.74608 84.177 8.3042 84.177 7.75643C84.177 7.20866 84.0109 6.76679 83.6787 6.43083C83.3538 6.09487 82.9368 5.92688 82.4274 5.92688C82.0952 5.92688 81.7962 6.00357 81.5304 6.15694C81.2646 6.30302 81.0542 6.51481 80.8992 6.79236C80.7442 7.0699 80.6666 7.39125 80.6666 7.75643C80.6666 8.12162 80.7442 8.44297 80.8992 8.72051C81.0542 8.99805 81.2646 9.2135 81.5304 9.36688C81.7962 9.51296 82.0952 9.58599 82.4274 9.58599ZM86.9609 4.83134H88.3451V8.68764L91.6118 4.83134H92.8742V10.6815H91.49V6.82522L88.2344 10.6815H86.9609V4.83134ZM94.7363 4.83134H96.1205V8.68764L99.3872 4.83134H100.65V10.6815H99.2654V6.82522L96.0097 10.6815H94.7363V4.83134ZM97.6043 4.14115C97.0064 4.14115 96.5486 4.00603 96.2312 3.7358C95.9212 3.45825 95.7624 3.05656 95.755 2.5307H96.6742C96.6815 2.79363 96.7627 3.00178 96.9178 3.15516C97.0801 3.30854 97.3054 3.38522 97.5933 3.38522C97.8738 3.38522 98.0953 3.30854 98.2577 3.15516C98.4275 3.00178 98.5161 2.79363 98.5235 2.5307H99.4647C99.4574 3.05656 99.2949 3.45825 98.9775 3.7358C98.6601 4.00603 98.2023 4.14115 97.6043 4.14115Z" fill="white"/>
</g>
<defs>
<linearGradient id="paint0_linear_605_1866" x1="5.28003" y1="19.067" x2="5.28481" y2="19.0701" gradientUnits="userSpaceOnUse">
<stop stop-color="#00E1FF"/>
<stop offset="1" stop-color="#0F5F9E"/>
</linearGradient>
<linearGradient id="paint1_linear_605_1866" x1="820.923" y1="5174.79" x2="7371.54" y2="7714.85" gradientUnits="userSpaceOnUse">
<stop stop-color="#00E1FF"/>
<stop offset="1" stop-color="#0F5F9E"/>
</linearGradient>
<linearGradient id="paint2_linear_605_1866" x1="15.0605" y1="14.0202" x2="15.0605" y2="28.8401" gradientUnits="userSpaceOnUse">
<stop stop-color="#00E25B"/>
<stop offset="0.05" stop-color="#00D957"/>
<stop offset="0.36" stop-color="#00A944"/>
<stop offset="0.63" stop-color="#008536"/>
<stop offset="0.86" stop-color="#00702D"/>
<stop offset="1" stop-color="#00682A"/>
</linearGradient>
<linearGradient id="paint3_linear_605_1866" x1="1279.85" y1="2933.19" x2="1279.85" y2="4470.71" gradientUnits="userSpaceOnUse">
<stop stop-color="#00E25B"/>
<stop offset="0.05" stop-color="#00D957"/>
<stop offset="0.36" stop-color="#00A944"/>
<stop offset="0.63" stop-color="#008536"/>
<stop offset="0.86" stop-color="#00702D"/>
<stop offset="1" stop-color="#00682A"/>
</linearGradient>
<linearGradient id="paint4_linear_605_1866" x1="1197.13" y1="2392.5" x2="1197.13" y2="3656.14" gradientUnits="userSpaceOnUse">
<stop stop-color="#00E25B"/>
<stop offset="0.05" stop-color="#00D957"/>
<stop offset="0.36" stop-color="#00A944"/>
<stop offset="0.63" stop-color="#008536"/>
<stop offset="0.86" stop-color="#00702D"/>
<stop offset="1" stop-color="#00682A"/>
</linearGradient>
<linearGradient id="paint5_linear_605_1866" x1="19.4081" y1="34.2562" x2="12.8542" y2="42.1517" gradientUnits="userSpaceOnUse">
<stop stop-color="#00AF47"/>
<stop offset="0.21" stop-color="#00AA45"/>
<stop offset="0.48" stop-color="#009A3E"/>
<stop offset="0.78" stop-color="#008034"/>
<stop offset="1" stop-color="#00682A"/>
</linearGradient>
<linearGradient id="paint6_linear_605_1866" x1="2692.38" y1="3152.61" x2="1270.99" y2="4411.26" gradientUnits="userSpaceOnUse">
<stop stop-color="#00AF47"/>
<stop offset="0.253992" stop-color="#00AA45"/>
<stop offset="0.493579" stop-color="#009A3E"/>
<stop offset="0.759209" stop-color="#008034"/>
<stop offset="1" stop-color="#00682A"/>
</linearGradient>
<linearGradient id="paint7_linear_605_1866" x1="0.491651" y1="29.492" x2="20.8191" y2="41.3553" gradientUnits="userSpaceOnUse">
<stop stop-color="#00EA5F"/>
<stop offset="0.2" stop-color="#00E55D"/>
<stop offset="0.45" stop-color="#00D556"/>
<stop offset="0.73" stop-color="#00BB4C"/>
<stop offset="1" stop-color="#009B3F"/>
</linearGradient>
<linearGradient id="paint8_linear_605_1866" x1="27.0976" y1="10.361" x2="169.235" y2="45.9657" gradientUnits="userSpaceOnUse">
<stop stop-color="#00EA5F"/>
<stop offset="0.57821" stop-color="#00CD53"/>
<stop offset="0.835143" stop-color="#009B3F"/>
</linearGradient>
<linearGradient id="paint9_linear_605_1866" x1="37.043" y1="27.2802" x2="152.495" y2="27.2802" gradientUnits="userSpaceOnUse">
<stop stop-color="#00E1FF"/>
<stop offset="0.19149" stop-color="#03C8EC"/>
<stop offset="0.35816" stop-color="#05B2DC"/>
<stop offset="0.535247" stop-color="#089BCB"/>
<stop offset="0.738375" stop-color="#0B81B7"/>
<stop offset="1" stop-color="#0F5F9E"/>
</linearGradient>
<linearGradient id="paint10_linear_605_1866" x1="37.0429" y1="6.7226" x2="99.5186" y2="6.7226" gradientUnits="userSpaceOnUse">
<stop stop-color="#00E1FF"/>
<stop offset="0.19149" stop-color="#03C8EC"/>
<stop offset="0.35816" stop-color="#05B2DC"/>
<stop offset="0.535247" stop-color="#089BCB"/>
<stop offset="0.738375" stop-color="#0B81B7"/>
<stop offset="1" stop-color="#0F5F9E"/>
</linearGradient>
<clipPath id="clip0_605_1866">
<rect width="156" height="43" fill="white" transform="translate(0.5)"/>
</clipPath>
</defs>
</svg>
