<svg width="24" height="24" viewBox="0 0 24 24" fill="none" xmlns="http://www.w3.org/2000/svg">
<path fill-rule="evenodd" clip-rule="evenodd" d="M1.50012 12C1.50012 12.1989 1.57914 12.3896 1.71979 12.5303C1.86045 12.671 2.05121 12.75 2.25012 12.75H19.9396L15.2191 17.469C15.0783 17.6098 14.9992 17.8008 14.9992 18C14.9992 18.1991 15.0783 18.3901 15.2191 18.531C15.36 18.6718 15.551 18.7509 15.7501 18.7509C15.9493 18.7509 16.1403 18.6718 16.2811 18.531L22.2811 12.531C22.351 12.4613 22.4064 12.3785 22.4442 12.2874C22.482 12.1963 22.5015 12.0986 22.5015 12C22.5015 11.9013 22.482 11.8036 22.4442 11.7125C22.4064 11.6214 22.351 11.5386 22.2811 11.469L16.2811 5.46897C16.2114 5.39924 16.1286 5.34392 16.0375 5.30619C15.9464 5.26845 15.8487 5.24902 15.7501 5.24902C15.551 5.24902 15.36 5.32814 15.2191 5.46897C15.0783 5.6098 14.9992 5.80081 14.9992 5.99997C14.9992 6.19913 15.0783 6.39014 15.2191 6.53097L19.9396 11.25H2.25012C2.05121 11.25 1.86045 11.329 1.71979 11.4696C1.57914 11.6103 1.50012 11.8011 1.50012 12Z" fill="black"></path>
</svg>
