<svg width="28" height="28" viewBox="0 0 28 28" fill="none" xmlns="http://www.w3.org/2000/svg">
<path d="M24.6111 2H2.38889C2.02053 2 1.66726 2.14145 1.4068 2.39324C1.14633 2.64502 1 2.98651 1 3.34259L1 24.8241C1 25.1802 1.14633 25.5216 1.4068 25.7734C1.66726 26.0252 2.02053 26.1667 2.38889 26.1667H14.3542V16.8222H11.1076V13.1637H14.3542V10.4785C14.3542 7.35695 16.3264 5.65521 19.2153 5.65521C20.1872 5.65246 21.1585 5.70064 22.125 5.79954V9.04861H20.1319C18.566 9.04861 18.2604 9.77025 18.2604 10.8275V13.1569H22.0069L21.5208 16.8155H18.2604V26.1667H24.6111C24.9795 26.1667 25.3327 26.0252 25.5932 25.7734C25.8537 25.5216 26 25.1802 26 24.8241V3.34259C26 2.98651 25.8537 2.64502 25.5932 2.39324C25.3327 2.14145 24.9795 2 24.6111 2V2Z" fill="white"></path>
</svg>
