<svg width="157" height="43" fill="none" xmlns="http://www.w3.org/2000/svg"><g clip-path="url('#clip0_605_1866')"><path fill-rule="evenodd" clip-rule="evenodd" d="m5.288 19.064-.011.01s.008-.01.011-.01Z" fill="url('#paint0_linear_605_1866')"/><path fill-rule="evenodd" clip-rule="evenodd" d="M5.299 19.05a.136.136 0 0 1 .018-.01s0-.01.007-.015l-.025.025Zm0 0a.136.136 0 0 1 .018-.01s0-.01.007-.015l-.025.025Zm0 0a.136.136 0 0 1 .018-.01s0-.01.007-.015l-.025.025Zm0 0a.136.136 0 0 1 .018-.01s0-.01.007-.015l-.025.025Zm0 0a.136.136 0 0 1 .018-.01s0-.01.007-.015l-.025.025Zm10.138-5.03a20.544 20.544 0 0 0-7.865 11.951 16.2 16.2 0 0 1 7.638 2.87 16.074 16.074 0 0 1 7.336-5.4 20.573 20.573 0 0 0-7.109-9.42ZM5.299 19.05a.136.136 0 0 1 .018-.01s0-.01.007-.015l-.025.025Zm0 0a.136.136 0 0 1 .018-.01s0-.01.007-.015l-.025.025Zm0 0a.136.136 0 0 1 .018-.01s0-.01.007-.015l-.025.025Zm0 0a.136.136 0 0 1 .018-.01s0-.01.007-.015l-.025.025Zm0 0a.136.136 0 0 1 .018-.01s0-.01.007-.015l-.025.025Zm0 0a.136.136 0 0 1 .018-.01s0-.01.007-.015l-.025.025Zm0 0a.136.136 0 0 1 .018-.01s0-.01.007-.015l-.025.025Zm21.19-1.16L15.07 0 3.648 17.89a27.03 27.03 0 0 0-2.769 6.984A24.772 24.772 0 0 0 .5 26.772a16.268 16.268 0 0 1 5.339-.89h.167a22.08 22.08 0 0 1 8.987-13.434l.444-.31.446.31a22.117 22.117 0 0 1 8.149 10.537 16.117 16.117 0 0 1 4.541-.494 27.724 27.724 0 0 0-2.083-4.6Zm-15.31-7.436a65.385 65.385 0 0 1-1.738 2.905 58.327 58.327 0 0 1-3.548 5.01 9.42 9.42 0 0 1-.324.403l-.168.207-.037.045v.007a.191.191 0 0 1-.025.037l-.01.012a.231.231 0 0 1-.073.054c-.01 0-.014-.01-.01-.011V19.068l.03-.137c.029-.095.058-.19.095-.294.07-.203.158-.418.25-.641.193-.455.43-.944.693-1.45a41.969 41.969 0 0 1 1.911-3.286 56.861 56.861 0 0 1 2.329-3.392c.404-.538.81-1.064 1.22-1.557.374-.46.775-.897 1.2-1.31a54.317 54.317 0 0 1-1.795 3.453Zm-5.862 8.581s0-.01.007-.014l-.025.026a.12.12 0 0 1 .018-.012Zm23.372 6.026a19.213 19.213 0 0 0-.276-1.036h-.384a14.562 14.562 0 0 0-5.01.885 14.521 14.521 0 0 0-6.598 4.887 16.051 16.051 0 0 1 5.08 8.018 15.699 15.699 0 0 1 .529 3.54 12.305 12.305 0 0 0 4.717-3.559c2.513-3.141 3.185-7.548 1.942-12.735ZM5.296 19.056a.126.126 0 0 1 .018-.011s0-.01.007-.014l-.025.025Zm15.006 20.52a12.704 12.704 0 0 0-.157-.81 17.597 17.597 0 0 0-.2-.786 14.497 14.497 0 0 0-4.988-7.409 14.64 14.64 0 0 0-8.452-3.14 13.476 13.476 0 0 0-.669-.016h-.108a14.721 14.721 0 0 0-4.44.71c-.407 4.157.553 7.57 2.873 10.154 2.007 2.239 4.983 3.716 8.401 4.221.277.043.554.077.83.105.277.028.554.05.831.064a.827.827 0 0 0 .08 0c.056 0 .111 0 .168.008l.311.011.277.188.263-.182H15.78l.207-.007c.099 0 .197-.008.294-.014.097-.005.231-.016.346-.025h.054a17.386 17.386 0 0 0 3.815-.724c0-.787-.064-1.572-.193-2.349ZM5.3 19.05a.136.136 0 0 1 .018-.01s0-.01.007-.015l-.025.025Zm0 0a.136.136 0 0 1 .018-.01s0-.01.007-.015l-.025.025Zm0 0a.136.136 0 0 1 .018-.01s0-.01.007-.015l-.025.025Zm0 0a.136.136 0 0 1 .018-.01s0-.01.007-.015l-.025.025Zm0 0a.136.136 0 0 1 .018-.01s0-.01.007-.015l-.025.025Zm0 0a.136.136 0 0 1 .018-.01s0-.01.007-.015l-.025.025Zm0 0a.136.136 0 0 1 .018-.01s0-.01.007-.015l-.025.025Zm0 0a.136.136 0 0 1 .018-.01s0-.01.007-.015l-.025.025Zm0 0a.136.136 0 0 1 .018-.01s0-.01.007-.015l-.025.025Z" fill="url('#paint1_linear_605_1866')"/><path fill-rule="evenodd" clip-rule="evenodd" d="M11.774 8.311a35.71 35.71 0 0 0-1.22 1.557 54.637 54.637 0 0 0-2.33 3.392 42.481 42.481 0 0 0-1.912 3.287c-.26.505-.497.994-.692 1.449-.093.223-.181.438-.25.64-.038.105-.067.2-.096.295l-.03.137V19.122s0 .013.01.012a.231.231 0 0 0 .073-.054c.01-.008.007-.008.01-.012a.191.191 0 0 0 .026-.037v-.007l.037-.045.168-.207.323-.402a48.046 48.046 0 0 0 1.677-2.229 55.633 55.633 0 0 0 1.871-2.782 67.12 67.12 0 0 0 1.739-2.905 57.208 57.208 0 0 0 1.8-3.453c-.427.413-.828.85-1.204 1.31ZM5.317 19.035a.136.136 0 0 0-.018.011l.025-.026s-.004.015-.007.015Z" fill="#fff"/><path d="m5.323 19.024-.006.014a.124.124 0 0 0-.018.01l.024-.024Z" fill="#fff"/><path fill-rule="evenodd" clip-rule="evenodd" d="M22.548 23.44a16.074 16.074 0 0 0-7.337 5.4 16.199 16.199 0 0 0-7.638-2.869 20.544 20.544 0 0 1 7.865-11.95 20.574 20.574 0 0 1 7.11 9.42Z" fill="url('#paint2_linear_605_1866')"/><path fill-rule="evenodd" clip-rule="evenodd" d="M19.945 37.977c.075.258.141.52.2.786-1.444.93-3.173 1.847-5.087 3.178a39.145 39.145 0 0 0-1.231-.821 48.945 48.945 0 0 0-.884-.569c-.293-.186-.575-.363-.85-.535C8.385 37.688 6.28 36.301 6.28 30.5c0-1.026.075-2.05.223-3.066a14.64 14.64 0 0 1 8.452 3.14c.2.159.415.33.605.504a14.498 14.498 0 0 1 4.385 6.899Z" fill="url('#paint3_linear_605_1866')"/><path fill-rule="evenodd" clip-rule="evenodd" d="M24.585 30.494c0 3.876-1.157 5.78-3.088 7.31a16.05 16.05 0 0 0-5.08-8.018 14.521 14.521 0 0 1 7.34-5.136c.549 1.9.828 3.867.828 5.844Z" fill="url('#paint4_linear_605_1866')"/><path d="M20.145 38.763a12.178 12.178 0 0 0-.2-.786c-.582.383-1.229.77-1.938 1.19a60.347 60.347 0 0 0-2.95 1.843c-.485-.328-.952-.633-1.396-.916l-.83-.527-.193-.127-.616-.388c-3.305-2.094-4.962-3.424-4.962-8.563 0-1.008.075-2.015.224-3.013a12.206 12.206 0 0 0-.777-.055 13.476 13.476 0 0 0-.668-.016H5.73c-.147 1.02-.22 2.05-.22 3.081 0 6.287 2.505 7.86 6.296 10.244l.425.267c.29.183.59.373.902.575a54.625 54.625 0 0 1 1.478.988l.174.122.277.188.263-.182.183-.126c1.175-.822 2.307-1.494 3.305-2.09.52-.31 1.02-.607 1.494-.907a18.033 18.033 0 0 0-.163-.802Zm4.361-14.317a13.43 13.43 0 0 0-1.48.453 20.24 20.24 0 0 1 .79 5.595c0 3.414-.886 5.12-2.55 6.517a13 13 0 0 1 .235.793c.07.267.139.548.198.822 2.231-1.67 3.665-3.744 3.665-8.132a21.73 21.73 0 0 0-.858-6.048Z" fill="#fff"/><path d="M20.302 39.576c.127.77.191 1.549.191 2.328-1.24.383-2.52.627-3.815.725h-.054c-.114.008-.23.018-.346.025a8.556 8.556 0 0 1-.293.013l-.208.007H15.32l-.263.182-.276-.187-.312-.011c-.056 0-.112 0-.167-.009a.768.768 0 0 1-.08 0 15.366 15.366 0 0 1-.831-.064 14.984 14.984 0 0 1-.616-4.269 14.898 14.898 0 0 1 2.176-7.771 14.496 14.496 0 0 1 4.989 7.409c.074.258.14.52.199.786.058.265.113.544.163.836Z" fill="url('#paint5_linear_605_1866')"/><path d="M26.747 37.796a12.31 12.31 0 0 1-4.717 3.546 15.708 15.708 0 0 0-.764-4.333 16.052 16.052 0 0 0-4.845-7.225 14.52 14.52 0 0 1 7.339-5.137c.25-.077.49-.137.74-.204a14.557 14.557 0 0 1 3.529-.431h.383c.097.343.189.684.277 1.035 1.243 5.2.57 9.608-1.942 12.75Z" fill="url('#paint6_linear_605_1866')"/><path d="M13.827 41.114a14.222 14.222 0 0 1-.271-2.77 14.113 14.113 0 0 1 2.006-7.268 14.386 14.386 0 0 0-1.22-.964 15.64 15.64 0 0 0-2.335 8.232c0 .24 0 .48.015.718.016.319.04.639.072.958.036.333.082.665.139.994.085.504.196 1.002.332 1.494.277.042.553.077.83.104.277.03.554.051.83.065-.048-.15-.093-.303-.138-.455-.1-.372-.187-.738-.26-1.108Zm1.494 1.58h-.533l.277.188.263-.182h.357a27.084 27.084 0 0 0-.364-.005Z" fill="#fff"/><path fill-rule="evenodd" clip-rule="evenodd" d="M20.493 41.904c-1.24.383-2.52.627-3.814.725h-.054c-.115.008-.23.018-.346.025a8.556 8.556 0 0 1-.294.013l-.208.007H15.321l-.263.182-.277-.187-.312-.011c-.056 0-.112 0-.167-.009a.768.768 0 0 1-.08 0 15.358 15.358 0 0 1-.83-.064 16.016 16.016 0 0 1-.832-.104c-3.418-.505-6.393-1.983-8.4-4.222C1.848 35.694.883 32.28 1.29 28.124a14.727 14.727 0 0 1 4.44-.71h.109c.224 0 .447.005.668.016a14.638 14.638 0 0 1 8.452 3.14c.201.159.416.33.605.504a14.496 14.496 0 0 1 4.384 6.904c.075.259.141.52.2.786a14.308 14.308 0 0 1 .346 3.14Z" fill="url('#paint7_linear_605_1866')"/><path d="M15.253 42.696H14.788l.276.188.263-.182-.074-.006Z" fill="#fff"/><path d="M62.6 18.556V36.29H39.578V18.556h3.278v14.947h6.607V18.556h3.277v14.947h6.582V18.556h3.277Zm4.678 4.205h3.2v8.918l7.555-8.918h2.92V36.29H77.75v-8.918l-7.529 8.918h-2.944V22.76Zm31.091 0V36.29h-3.175V25.447h-6.735V36.29h-3.201V22.76h13.111Zm9.415-.152c2.015 0 3.551.482 4.61 1.444 1.075.946 1.613 2.382 1.613 4.307v7.93h-3.022v-1.647c-.392.591-.956 1.047-1.69 1.368-.717.304-1.588.456-2.612.456s-1.92-.169-2.689-.506c-.768-.355-1.365-.837-1.792-1.445a3.75 3.75 0 0 1-.615-2.102c0-1.216.453-2.188 1.357-2.914.922-.743 2.365-1.114 4.328-1.114h3.534v-.203c0-.946-.29-1.672-.871-2.179-.563-.507-1.408-.76-2.535-.76-.768 0-1.528.118-2.279.355-.734.236-1.357.566-1.869.988l-1.255-2.306c.717-.54 1.579-.954 2.586-1.241a11.63 11.63 0 0 1 3.201-.43Zm-.435 11.553c.802 0 1.511-.178 2.125-.532a3.015 3.015 0 0 0 1.332-1.571v-1.57h-3.303c-1.844 0-2.766.599-2.766 1.798 0 .574.23 1.03.691 1.368.461.338 1.102.507 1.921.507Zm26.3 2.381c-1.809 0-3.448-.388-4.916-1.165a8.952 8.952 0 0 1-3.432-3.268c-.819-1.385-1.229-2.948-1.229-4.687 0-1.74.418-3.302 1.255-4.687a8.757 8.757 0 0 1 3.431-3.243c1.468-.794 3.107-1.19 4.917-1.19 1.468 0 2.808.253 4.02.76a8.194 8.194 0 0 1 3.073 2.204l-2.151 2c-1.297-1.384-2.893-2.076-4.788-2.076-1.229 0-2.331.27-3.304.81a5.692 5.692 0 0 0-2.279 2.204c-.546.946-.819 2.019-.819 3.218 0 1.199.273 2.271.819 3.217a5.87 5.87 0 0 0 2.279 2.23c.973.523 2.075.785 3.304.785 1.895 0 3.491-.7 4.788-2.103l2.151 2.027a8.15 8.15 0 0 1-3.098 2.204c-1.212.507-2.552.76-4.021.76Zm22.758-13.782-6.402 14.618c-.598 1.47-1.323 2.5-2.177 3.091-.853.608-1.885.912-3.098.912-.682 0-1.358-.11-2.024-.33-.666-.219-1.211-.523-1.639-.911l1.281-2.331c.307.287.666.515 1.075.684.428.169.854.253 1.281.253.563 0 1.024-.143 1.383-.43.376-.288.717-.769 1.024-1.444l.231-.532-5.967-13.58h3.329l4.302 10.007 4.328-10.007h3.073Z" fill="#17E269"/><path d="M62.6 18.556V36.29H39.578V18.556h3.278v14.947h6.607V18.556h3.277v14.947h6.582V18.556h3.277Zm4.678 4.205h3.2v8.918l7.555-8.918h2.92V36.29H77.75v-8.918l-7.529 8.918h-2.944V22.76Zm31.091 0V36.29h-3.175V25.447h-6.735V36.29h-3.201V22.76h13.111Zm9.415-.152c2.015 0 3.551.482 4.61 1.444 1.075.946 1.613 2.382 1.613 4.307v7.93h-3.022v-1.647c-.392.591-.956 1.047-1.69 1.368-.717.304-1.588.456-2.612.456s-1.92-.169-2.689-.506c-.768-.355-1.365-.837-1.792-1.445a3.75 3.75 0 0 1-.615-2.102c0-1.216.453-2.188 1.357-2.914.922-.743 2.365-1.114 4.328-1.114h3.534v-.203c0-.946-.29-1.672-.871-2.179-.563-.507-1.408-.76-2.535-.76-.768 0-1.528.118-2.279.355-.734.236-1.357.566-1.869.988l-1.255-2.306c.717-.54 1.579-.954 2.586-1.241a11.63 11.63 0 0 1 3.201-.43Zm-.435 11.553c.802 0 1.511-.178 2.125-.532a3.015 3.015 0 0 0 1.332-1.571v-1.57h-3.303c-1.844 0-2.766.599-2.766 1.798 0 .574.23 1.03.691 1.368.461.338 1.102.507 1.921.507Zm26.3 2.381c-1.809 0-3.448-.388-4.916-1.165a8.952 8.952 0 0 1-3.432-3.268c-.819-1.385-1.229-2.948-1.229-4.687 0-1.74.418-3.302 1.255-4.687a8.757 8.757 0 0 1 3.431-3.243c1.468-.794 3.107-1.19 4.917-1.19 1.468 0 2.808.253 4.02.76a8.194 8.194 0 0 1 3.073 2.204l-2.151 2c-1.297-1.384-2.893-2.076-4.788-2.076-1.229 0-2.331.27-3.304.81a5.692 5.692 0 0 0-2.279 2.204c-.546.946-.819 2.019-.819 3.218 0 1.199.273 2.271.819 3.217a5.87 5.87 0 0 0 2.279 2.23c.973.523 2.075.785 3.304.785 1.895 0 3.491-.7 4.788-2.103l2.151 2.027a8.15 8.15 0 0 1-3.098 2.204c-1.212.507-2.552.76-4.021.76Zm22.758-13.782-6.402 14.618c-.598 1.47-1.323 2.5-2.177 3.091-.853.608-1.885.912-3.098.912-.682 0-1.358-.11-2.024-.33-.666-.219-1.211-.523-1.639-.911l1.281-2.331c.307.287.666.515 1.075.684.428.169.854.253 1.281.253.563 0 1.024-.143 1.383-.43.376-.288.717-.769 1.024-1.444l.231-.532-5.967-13.58h3.329l4.302 10.007 4.328-10.007h3.073Z" fill="url('#paint8_linear_605_1866')"/><path d="M62.6 18.556V36.29H39.578V18.556h3.278v14.947h6.607V18.556h3.277v14.947h6.582V18.556h3.277Zm4.678 4.205h3.2v8.918l7.555-8.918h2.92V36.29H77.75v-8.918l-7.529 8.918h-2.944V22.76Zm31.091 0V36.29h-3.175V25.447h-6.735V36.29h-3.201V22.76h13.111Zm9.415-.152c2.015 0 3.551.482 4.61 1.444 1.075.946 1.613 2.382 1.613 4.307v7.93h-3.022v-1.647c-.392.591-.956 1.047-1.69 1.368-.717.304-1.588.456-2.612.456s-1.92-.169-2.689-.506c-.768-.355-1.365-.837-1.792-1.445a3.75 3.75 0 0 1-.615-2.102c0-1.216.453-2.188 1.357-2.914.922-.743 2.365-1.114 4.328-1.114h3.534v-.203c0-.946-.29-1.672-.871-2.179-.563-.507-1.408-.76-2.535-.76-.768 0-1.528.118-2.279.355-.734.236-1.357.566-1.869.988l-1.255-2.306c.717-.54 1.579-.954 2.586-1.241a11.63 11.63 0 0 1 3.201-.43Zm-.435 11.553c.802 0 1.511-.178 2.125-.532a3.015 3.015 0 0 0 1.332-1.571v-1.57h-3.303c-1.844 0-2.766.599-2.766 1.798 0 .574.23 1.03.691 1.368.461.338 1.102.507 1.921.507Zm26.3 2.381c-1.809 0-3.448-.388-4.916-1.165a8.952 8.952 0 0 1-3.432-3.268c-.819-1.385-1.229-2.948-1.229-4.687 0-1.74.418-3.302 1.255-4.687a8.757 8.757 0 0 1 3.431-3.243c1.468-.794 3.107-1.19 4.917-1.19 1.468 0 2.808.253 4.02.76a8.194 8.194 0 0 1 3.073 2.204l-2.151 2c-1.297-1.384-2.893-2.076-4.788-2.076-1.229 0-2.331.27-3.304.81a5.692 5.692 0 0 0-2.279 2.204c-.546.946-.819 2.019-.819 3.218 0 1.199.273 2.271.819 3.217a5.87 5.87 0 0 0 2.279 2.23c.973.523 2.075.785 3.304.785 1.895 0 3.491-.7 4.788-2.103l2.151 2.027a8.15 8.15 0 0 1-3.098 2.204c-1.212.507-2.552.76-4.021.76Zm22.758-13.782-6.402 14.618c-.598 1.47-1.323 2.5-2.177 3.091-.853.608-1.885.912-3.098.912-.682 0-1.358-.11-2.024-.33-.666-.219-1.211-.523-1.639-.911l1.281-2.331c.307.287.666.515 1.075.684.428.169.854.253 1.281.253.563 0 1.024-.143 1.383-.43.376-.288.717-.769 1.024-1.444l.231-.532-5.967-13.58h3.329l4.302 10.007 4.328-10.007h3.073Z" fill="url('#paint9_linear_605_1866')"/><path d="M62.6 18.556V36.29H39.578V18.556h3.278v14.947h6.607V18.556h3.277v14.947h6.582V18.556h3.277Zm4.678 4.205h3.2v8.918l7.555-8.918h2.92V36.29H77.75v-8.918l-7.529 8.918h-2.944V22.76Zm31.091 0V36.29h-3.175V25.447h-6.735V36.29h-3.201V22.76h13.111Zm9.415-.152c2.015 0 3.551.482 4.61 1.444 1.075.946 1.613 2.382 1.613 4.307v7.93h-3.022v-1.647c-.392.591-.956 1.047-1.69 1.368-.717.304-1.588.456-2.612.456s-1.92-.169-2.689-.506c-.768-.355-1.365-.837-1.792-1.445a3.75 3.75 0 0 1-.615-2.102c0-1.216.453-2.188 1.357-2.914.922-.743 2.365-1.114 4.328-1.114h3.534v-.203c0-.946-.29-1.672-.871-2.179-.563-.507-1.408-.76-2.535-.76-.768 0-1.528.118-2.279.355-.734.236-1.357.566-1.869.988l-1.255-2.306c.717-.54 1.579-.954 2.586-1.241a11.63 11.63 0 0 1 3.201-.43Zm-.435 11.553c.802 0 1.511-.178 2.125-.532a3.015 3.015 0 0 0 1.332-1.571v-1.57h-3.303c-1.844 0-2.766.599-2.766 1.798 0 .574.23 1.03.691 1.368.461.338 1.102.507 1.921.507Zm26.3 2.381c-1.809 0-3.448-.388-4.916-1.165a8.952 8.952 0 0 1-3.432-3.268c-.819-1.385-1.229-2.948-1.229-4.687 0-1.74.418-3.302 1.255-4.687a8.757 8.757 0 0 1 3.431-3.243c1.468-.794 3.107-1.19 4.917-1.19 1.468 0 2.808.253 4.02.76a8.194 8.194 0 0 1 3.073 2.204l-2.151 2c-1.297-1.384-2.893-2.076-4.788-2.076-1.229 0-2.331.27-3.304.81a5.692 5.692 0 0 0-2.279 2.204c-.546.946-.819 2.019-.819 3.218 0 1.199.273 2.271.819 3.217a5.87 5.87 0 0 0 2.279 2.23c.973.523 2.075.785 3.304.785 1.895 0 3.491-.7 4.788-2.103l2.151 2.027a8.15 8.15 0 0 1-3.098 2.204c-1.212.507-2.552.76-4.021.76Zm22.758-13.782-6.402 14.618c-.598 1.47-1.323 2.5-2.177 3.091-.853.608-1.885.912-3.098.912-.682 0-1.358-.11-2.024-.33-.666-.219-1.211-.523-1.639-.911l1.281-2.331c.307.287.666.515 1.075.684.428.169.854.253 1.281.253.563 0 1.024-.143 1.383-.43.376-.288.717-.769 1.024-1.444l.231-.532-5.967-13.58h3.329l4.302 10.007 4.328-10.007h3.073Z" fill="#fff"/><path d="M41.694 10.791c-.783 0-1.491-.168-2.126-.504a3.868 3.868 0 0 1-1.484-1.413c-.355-.599-.532-1.275-.532-2.027 0-.752.181-1.428.543-2.027a3.788 3.788 0 0 1 1.484-1.402c.635-.343 1.343-.515 2.126-.515.635 0 1.214.11 1.738.329.525.219.968.537 1.33.953l-.93.865a2.726 2.726 0 0 0-2.072-.898c-.531 0-1.007.117-1.428.35-.421.227-.75.545-.986.954a2.73 2.73 0 0 0-.354 1.391c0 .519.118.982.354 1.391.236.41.565.73.986.965.42.226.897.34 1.428.34.82 0 1.51-.304 2.071-.91l.93.876a3.526 3.526 0 0 1-1.34.953 4.465 4.465 0 0 1-1.738.33Zm6.41-6.025c.87 0 1.535.208 1.993.624.465.41.697 1.03.697 1.862v3.43h-1.306v-.713c-.17.256-.414.453-.731.592-.31.132-.687.197-1.13.197-.443 0-.83-.073-1.162-.219a1.888 1.888 0 0 1-.776-.624 1.623 1.623 0 0 1-.265-.91c0-.526.195-.945.587-1.26.398-.32 1.022-.482 1.871-.482h1.528v-.087c0-.41-.125-.723-.376-.942-.244-.22-.61-.329-1.097-.329-.332 0-.66.051-.985.153a2.422 2.422 0 0 0-.808.428l-.543-.997c.31-.234.683-.413 1.118-.537a5.026 5.026 0 0 1 1.384-.186Zm-.189 4.995c.347 0 .654-.076.92-.23.273-.16.464-.387.575-.679v-.68h-1.428c-.798 0-1.196.26-1.196.779 0 .248.1.445.299.591.199.146.476.22.83.22Zm4.592-4.93h1.384V7.21h2.98V4.83h1.383v5.85H56.87V8.37h-2.979v2.312h-1.384v-5.85Zm9.806-.065c.871 0 1.536.208 1.993.624.466.41.698 1.03.698 1.862v3.43h-1.307v-.713c-.17.256-.413.453-.73.592-.31.132-.687.197-1.13.197-.443 0-.83-.073-1.163-.219a1.888 1.888 0 0 1-.775-.624 1.623 1.623 0 0 1-.266-.91c0-.526.196-.945.587-1.26.399-.32 1.023-.482 1.872-.482h1.528v-.087c0-.41-.126-.723-.377-.942-.243-.22-.609-.329-1.096-.329-.332 0-.66.051-.986.153a2.423 2.423 0 0 0-.808.428l-.543-.997c.31-.234.683-.413 1.119-.537a5.027 5.027 0 0 1 1.384-.186Zm-.188 4.995c.347 0 .653-.076.92-.23.272-.16.464-.387.575-.679v-.68H62.19c-.797 0-1.196.26-1.196.779 0 .248.1.445.3.591.199.146.476.22.83.22ZM71.4 5.993h-2.07v4.688h-1.385V5.994h-2.082V4.83h5.537v1.162Zm3.38 4.765a3.385 3.385 0 0 1-1.617-.383 2.864 2.864 0 0 1-1.13-1.063 3.053 3.053 0 0 1-.398-1.556c0-.577.133-1.091.399-1.544.273-.453.65-.807 1.13-1.063a3.384 3.384 0 0 1 1.616-.383c.605 0 1.148.127 1.628.383s.853.61 1.118 1.063c.273.453.41.967.41 1.544a2.99 2.99 0 0 1-.41 1.556 2.786 2.786 0 0 1-1.118 1.063c-.48.255-1.023.383-1.628.383Zm0-1.172c.51 0 .93-.168 1.262-.504.333-.336.499-.778.499-1.326 0-.547-.166-.99-.499-1.325-.332-.336-.753-.504-1.262-.504-.51 0-.93.168-1.262.504-.325.336-.488.778-.488 1.325 0 .548.163.99.488 1.326.332.336.753.504 1.262.504Zm7.801-4.82c.576 0 1.09.124 1.54.372.457.248.815.599 1.074 1.052.258.453.387.975.387 1.566 0 .592-.129 1.118-.387 1.578a2.693 2.693 0 0 1-1.074 1.052c-.45.248-.964.372-1.54.372-.797 0-1.428-.263-1.893-.789v2.838h-1.384V4.83h1.317v.767c.23-.277.51-.485.842-.624.34-.139.712-.208 1.118-.208Zm-.155 4.82c.51 0 .927-.168 1.252-.504.332-.336.498-.778.498-1.326 0-.547-.166-.99-.498-1.325-.325-.336-.742-.504-1.252-.504-.332 0-.63.077-.897.23a1.593 1.593 0 0 0-.63.635 1.944 1.944 0 0 0-.233.964c0 .366.077.687.232.965.155.277.366.492.631.646.266.146.565.219.897.219Zm4.534-4.755h1.384v3.857l3.267-3.857h1.262v5.85H91.49V6.825l-3.256 3.856h-1.273v-5.85Zm7.775 0h1.385v3.857l3.266-3.857h1.263v5.85h-1.385V6.825l-3.255 3.856h-1.274v-5.85Zm2.868-.69c-.598 0-1.055-.135-1.373-.405-.31-.278-.469-.68-.476-1.205h.92c.007.263.088.47.243.624.162.154.387.23.675.23.28 0 .502-.076.665-.23.17-.153.258-.361.266-.624h.94c-.007.526-.17.927-.486 1.205-.318.27-.776.405-1.374.405Z" fill="#000"/><path d="M41.694 10.791c-.783 0-1.491-.168-2.126-.504a3.868 3.868 0 0 1-1.484-1.413c-.355-.599-.532-1.275-.532-2.027 0-.752.181-1.428.543-2.027a3.788 3.788 0 0 1 1.484-1.402c.635-.343 1.343-.515 2.126-.515.635 0 1.214.11 1.738.329.525.219.968.537 1.33.953l-.93.865a2.726 2.726 0 0 0-2.072-.898c-.531 0-1.007.117-1.428.35-.421.227-.75.545-.986.954a2.73 2.73 0 0 0-.354 1.391c0 .519.118.982.354 1.391.236.41.565.73.986.965.42.226.897.34 1.428.34.82 0 1.51-.304 2.071-.91l.93.876a3.526 3.526 0 0 1-1.34.953 4.465 4.465 0 0 1-1.738.33Zm6.41-6.025c.87 0 1.535.208 1.993.624.465.41.697 1.03.697 1.862v3.43h-1.306v-.713c-.17.256-.414.453-.731.592-.31.132-.687.197-1.13.197-.443 0-.83-.073-1.162-.219a1.888 1.888 0 0 1-.776-.624 1.623 1.623 0 0 1-.265-.91c0-.526.195-.945.587-1.26.398-.32 1.022-.482 1.871-.482h1.528v-.087c0-.41-.125-.723-.376-.942-.244-.22-.61-.329-1.097-.329-.332 0-.66.051-.985.153a2.422 2.422 0 0 0-.808.428l-.543-.997c.31-.234.683-.413 1.118-.537a5.026 5.026 0 0 1 1.384-.186Zm-.189 4.995c.347 0 .654-.076.92-.23.273-.16.464-.387.575-.679v-.68h-1.428c-.798 0-1.196.26-1.196.779 0 .248.1.445.299.591.199.146.476.22.83.22Zm4.592-4.93h1.384V7.21h2.98V4.83h1.383v5.85H56.87V8.37h-2.979v2.312h-1.384v-5.85Zm9.806-.065c.871 0 1.536.208 1.993.624.466.41.698 1.03.698 1.862v3.43h-1.307v-.713c-.17.256-.413.453-.73.592-.31.132-.687.197-1.13.197-.443 0-.83-.073-1.163-.219a1.888 1.888 0 0 1-.775-.624 1.623 1.623 0 0 1-.266-.91c0-.526.196-.945.587-1.26.399-.32 1.023-.482 1.872-.482h1.528v-.087c0-.41-.126-.723-.377-.942-.243-.22-.609-.329-1.096-.329-.332 0-.66.051-.986.153a2.423 2.423 0 0 0-.808.428l-.543-.997c.31-.234.683-.413 1.119-.537a5.027 5.027 0 0 1 1.384-.186Zm-.188 4.995c.347 0 .653-.076.92-.23.272-.16.464-.387.575-.679v-.68H62.19c-.797 0-1.196.26-1.196.779 0 .248.1.445.3.591.199.146.476.22.83.22ZM71.4 5.993h-2.07v4.688h-1.385V5.994h-2.082V4.83h5.537v1.162Zm3.38 4.765a3.385 3.385 0 0 1-1.617-.383 2.864 2.864 0 0 1-1.13-1.063 3.053 3.053 0 0 1-.398-1.556c0-.577.133-1.091.399-1.544.273-.453.65-.807 1.13-1.063a3.384 3.384 0 0 1 1.616-.383c.605 0 1.148.127 1.628.383s.853.61 1.118 1.063c.273.453.41.967.41 1.544a2.99 2.99 0 0 1-.41 1.556 2.786 2.786 0 0 1-1.118 1.063c-.48.255-1.023.383-1.628.383Zm0-1.172c.51 0 .93-.168 1.262-.504.333-.336.499-.778.499-1.326 0-.547-.166-.99-.499-1.325-.332-.336-.753-.504-1.262-.504-.51 0-.93.168-1.262.504-.325.336-.488.778-.488 1.325 0 .548.163.99.488 1.326.332.336.753.504 1.262.504Zm7.801-4.82c.576 0 1.09.124 1.54.372.457.248.815.599 1.074 1.052.258.453.387.975.387 1.566 0 .592-.129 1.118-.387 1.578a2.693 2.693 0 0 1-1.074 1.052c-.45.248-.964.372-1.54.372-.797 0-1.428-.263-1.893-.789v2.838h-1.384V4.83h1.317v.767c.23-.277.51-.485.842-.624.34-.139.712-.208 1.118-.208Zm-.155 4.82c.51 0 .927-.168 1.252-.504.332-.336.498-.778.498-1.326 0-.547-.166-.99-.498-1.325-.325-.336-.742-.504-1.252-.504-.332 0-.63.077-.897.23a1.593 1.593 0 0 0-.63.635 1.944 1.944 0 0 0-.233.964c0 .366.077.687.232.965.155.277.366.492.631.646.266.146.565.219.897.219Zm4.534-4.755h1.384v3.857l3.267-3.857h1.262v5.85H91.49V6.825l-3.256 3.856h-1.273v-5.85Zm7.775 0h1.385v3.857l3.266-3.857h1.263v5.85h-1.385V6.825l-3.255 3.856h-1.274v-5.85Zm2.868-.69c-.598 0-1.055-.135-1.373-.405-.31-.278-.469-.68-.476-1.205h.92c.007.263.088.47.243.624.162.154.387.23.675.23.28 0 .502-.076.665-.23.17-.153.258-.361.266-.624h.94c-.007.526-.17.927-.486 1.205-.318.27-.776.405-1.374.405Z" fill="url('#paint10_linear_605_1866')"/><path d="M41.694 10.791c-.783 0-1.491-.168-2.126-.504a3.868 3.868 0 0 1-1.484-1.413c-.355-.599-.532-1.275-.532-2.027 0-.752.181-1.428.543-2.027a3.788 3.788 0 0 1 1.484-1.402c.635-.343 1.343-.515 2.126-.515.635 0 1.214.11 1.738.329.525.219.968.537 1.33.953l-.93.865a2.726 2.726 0 0 0-2.072-.898c-.531 0-1.007.117-1.428.35-.421.227-.75.545-.986.954a2.73 2.73 0 0 0-.354 1.391c0 .519.118.982.354 1.391.236.41.565.73.986.965.42.226.897.34 1.428.34.82 0 1.51-.304 2.071-.91l.93.876a3.526 3.526 0 0 1-1.34.953 4.465 4.465 0 0 1-1.738.33Zm6.41-6.025c.87 0 1.535.208 1.993.624.465.41.697 1.03.697 1.862v3.43h-1.306v-.713c-.17.256-.414.453-.731.592-.31.132-.687.197-1.13.197-.443 0-.83-.073-1.162-.219a1.888 1.888 0 0 1-.776-.624 1.623 1.623 0 0 1-.265-.91c0-.526.195-.945.587-1.26.398-.32 1.022-.482 1.871-.482h1.528v-.087c0-.41-.125-.723-.376-.942-.244-.22-.61-.329-1.097-.329-.332 0-.66.051-.985.153a2.422 2.422 0 0 0-.808.428l-.543-.997c.31-.234.683-.413 1.118-.537a5.026 5.026 0 0 1 1.384-.186Zm-.189 4.995c.347 0 .654-.076.92-.23.273-.16.464-.387.575-.679v-.68h-1.428c-.798 0-1.196.26-1.196.779 0 .248.1.445.299.591.199.146.476.22.83.22Zm4.592-4.93h1.384V7.21h2.98V4.83h1.383v5.85H56.87V8.37h-2.979v2.312h-1.384v-5.85Zm9.806-.065c.871 0 1.536.208 1.993.624.466.41.698 1.03.698 1.862v3.43h-1.307v-.713c-.17.256-.413.453-.73.592-.31.132-.687.197-1.13.197-.443 0-.83-.073-1.163-.219a1.888 1.888 0 0 1-.775-.624 1.623 1.623 0 0 1-.266-.91c0-.526.196-.945.587-1.26.399-.32 1.023-.482 1.872-.482h1.528v-.087c0-.41-.126-.723-.377-.942-.243-.22-.609-.329-1.096-.329-.332 0-.66.051-.986.153a2.423 2.423 0 0 0-.808.428l-.543-.997c.31-.234.683-.413 1.119-.537a5.027 5.027 0 0 1 1.384-.186Zm-.188 4.995c.347 0 .653-.076.92-.23.272-.16.464-.387.575-.679v-.68H62.19c-.797 0-1.196.26-1.196.779 0 .248.1.445.3.591.199.146.476.22.83.22ZM71.4 5.993h-2.07v4.688h-1.385V5.994h-2.082V4.83h5.537v1.162Zm3.38 4.765a3.385 3.385 0 0 1-1.617-.383 2.864 2.864 0 0 1-1.13-1.063 3.053 3.053 0 0 1-.398-1.556c0-.577.133-1.091.399-1.544.273-.453.65-.807 1.13-1.063a3.384 3.384 0 0 1 1.616-.383c.605 0 1.148.127 1.628.383s.853.61 1.118 1.063c.273.453.41.967.41 1.544a2.99 2.99 0 0 1-.41 1.556 2.786 2.786 0 0 1-1.118 1.063c-.48.255-1.023.383-1.628.383Zm0-1.172c.51 0 .93-.168 1.262-.504.333-.336.499-.778.499-1.326 0-.547-.166-.99-.499-1.325-.332-.336-.753-.504-1.262-.504-.51 0-.93.168-1.262.504-.325.336-.488.778-.488 1.325 0 .548.163.99.488 1.326.332.336.753.504 1.262.504Zm7.801-4.82c.576 0 1.09.124 1.54.372.457.248.815.599 1.074 1.052.258.453.387.975.387 1.566 0 .592-.129 1.118-.387 1.578a2.693 2.693 0 0 1-1.074 1.052c-.45.248-.964.372-1.54.372-.797 0-1.428-.263-1.893-.789v2.838h-1.384V4.83h1.317v.767c.23-.277.51-.485.842-.624.34-.139.712-.208 1.118-.208Zm-.155 4.82c.51 0 .927-.168 1.252-.504.332-.336.498-.778.498-1.326 0-.547-.166-.99-.498-1.325-.325-.336-.742-.504-1.252-.504-.332 0-.63.077-.897.23a1.593 1.593 0 0 0-.63.635 1.944 1.944 0 0 0-.233.964c0 .366.077.687.232.965.155.277.366.492.631.646.266.146.565.219.897.219Zm4.534-4.755h1.384v3.857l3.267-3.857h1.262v5.85H91.49V6.825l-3.256 3.856h-1.273v-5.85Zm7.775 0h1.385v3.857l3.266-3.857h1.263v5.85h-1.385V6.825l-3.255 3.856h-1.274v-5.85Zm2.868-.69c-.598 0-1.055-.135-1.373-.405-.31-.278-.469-.68-.476-1.205h.92c.007.263.088.47.243.624.162.154.387.23.675.23.28 0 .502-.076.665-.23.17-.153.258-.361.266-.624h.94c-.007.526-.17.927-.486 1.205-.318.27-.776.405-1.374.405Z" fill="#fff"/></g><defs><linearGradient id="paint0_linear_605_1866" x1="5.28" y1="19.067" x2="5.285" y2="19.07" gradientUnits="userSpaceOnUse"><stop stop-color="#00E1FF"/><stop offset="1" stop-color="#0F5F9E"/></linearGradient><linearGradient id="paint1_linear_605_1866" x1="820.923" y1="5174.79" x2="7371.54" y2="7714.85" gradientUnits="userSpaceOnUse"><stop stop-color="#00E1FF"/><stop offset="1" stop-color="#0F5F9E"/></linearGradient><linearGradient id="paint2_linear_605_1866" x1="15.06" y1="14.02" x2="15.06" y2="28.84" gradientUnits="userSpaceOnUse"><stop stop-color="#00E25B"/><stop offset=".05" stop-color="#00D957"/><stop offset=".36" stop-color="#00A944"/><stop offset=".63" stop-color="#008536"/><stop offset=".86" stop-color="#00702D"/><stop offset="1" stop-color="#00682A"/></linearGradient><linearGradient id="paint3_linear_605_1866" x1="1279.85" y1="2933.19" x2="1279.85" y2="4470.71" gradientUnits="userSpaceOnUse"><stop stop-color="#00E25B"/><stop offset=".05" stop-color="#00D957"/><stop offset=".36" stop-color="#00A944"/><stop offset=".63" stop-color="#008536"/><stop offset=".86" stop-color="#00702D"/><stop offset="1" stop-color="#00682A"/></linearGradient><linearGradient id="paint4_linear_605_1866" x1="1197.13" y1="2392.5" x2="1197.13" y2="3656.14" gradientUnits="userSpaceOnUse"><stop stop-color="#00E25B"/><stop offset=".05" stop-color="#00D957"/><stop offset=".36" stop-color="#00A944"/><stop offset=".63" stop-color="#008536"/><stop offset=".86" stop-color="#00702D"/><stop offset="1" stop-color="#00682A"/></linearGradient><linearGradient id="paint5_linear_605_1866" x1="19.408" y1="34.256" x2="12.854" y2="42.152" gradientUnits="userSpaceOnUse"><stop stop-color="#00AF47"/><stop offset=".21" stop-color="#00AA45"/><stop offset=".48" stop-color="#009A3E"/><stop offset=".78" stop-color="#008034"/><stop offset="1" stop-color="#00682A"/></linearGradient><linearGradient id="paint6_linear_605_1866" x1="2692.38" y1="3152.61" x2="1270.99" y2="4411.26" gradientUnits="userSpaceOnUse"><stop stop-color="#00AF47"/><stop offset=".254" stop-color="#00AA45"/><stop offset=".494" stop-color="#009A3E"/><stop offset=".759" stop-color="#008034"/><stop offset="1" stop-color="#00682A"/></linearGradient><linearGradient id="paint7_linear_605_1866" x1=".492" y1="29.492" x2="20.819" y2="41.355" gradientUnits="userSpaceOnUse"><stop stop-color="#00EA5F"/><stop offset=".2" stop-color="#00E55D"/><stop offset=".45" stop-color="#00D556"/><stop offset=".73" stop-color="#00BB4C"/><stop offset="1" stop-color="#009B3F"/></linearGradient><linearGradient id="paint8_linear_605_1866" x1="27.098" y1="10.361" x2="169.235" y2="45.966" gradientUnits="userSpaceOnUse"><stop stop-color="#00EA5F"/><stop offset=".578" stop-color="#00CD53"/><stop offset=".835" stop-color="#009B3F"/></linearGradient><linearGradient id="paint9_linear_605_1866" x1="37.043" y1="27.28" x2="152.495" y2="27.28" gradientUnits="userSpaceOnUse"><stop stop-color="#00E1FF"/><stop offset=".191" stop-color="#03C8EC"/><stop offset=".358" stop-color="#05B2DC"/><stop offset=".535" stop-color="#089BCB"/><stop offset=".738" stop-color="#0B81B7"/><stop offset="1" stop-color="#0F5F9E"/></linearGradient><linearGradient id="paint10_linear_605_1866" x1="37.043" y1="6.723" x2="99.519" y2="6.723" gradientUnits="userSpaceOnUse"><stop stop-color="#00E1FF"/><stop offset=".191" stop-color="#03C8EC"/><stop offset=".358" stop-color="#05B2DC"/><stop offset=".535" stop-color="#089BCB"/><stop offset=".738" stop-color="#0B81B7"/><stop offset="1" stop-color="#0F5F9E"/></linearGradient><clipPath id="clip0_605_1866"><path fill="#fff" transform="translate(.5)" d="M0 0h156v43H0z"/></clipPath></defs></svg>