<svg width="28" height="29" viewBox="0 0 28 29" fill="none" xmlns="http://www.w3.org/2000/svg">
<path fill-rule="evenodd" clip-rule="evenodd" d="M8.709 1.74399C10.0775 1.68099 10.5138 1.66699 13.9998 1.66699C17.4858 1.66699 17.9222 1.68216 19.2895 1.74399C20.6568 1.80583 21.5902 2.02399 22.4068 2.34016C23.262 2.66333 24.0378 3.16849 24.6795 3.82183C25.3328 4.46233 25.8368 5.23699 26.1588 6.09333C26.4762 6.90999 26.6932 7.84333 26.7562 9.20833C26.8192 10.5792 26.8332 11.0155 26.8332 14.5003C26.8332 17.9863 26.818 18.4227 26.7562 19.7912C26.6943 21.1562 26.4762 22.0895 26.1588 22.9062C25.8368 23.7626 25.332 24.5386 24.6795 25.18C24.0378 25.8333 23.262 26.3373 22.4068 26.6593C21.5902 26.9767 20.6568 27.1937 19.2918 27.2567C17.9222 27.3197 17.4858 27.3337 13.9998 27.3337C10.5138 27.3337 10.0775 27.3185 8.709 27.2567C7.344 27.1948 6.41067 26.9767 5.594 26.6593C4.73758 26.3373 3.96163 25.8325 3.32017 25.18C2.66728 24.5391 2.16204 23.7635 1.83967 22.9073C1.5235 22.0907 1.3065 21.1573 1.2435 19.7923C1.1805 18.4215 1.1665 17.9852 1.1665 14.5003C1.1665 11.0143 1.18167 10.578 1.2435 9.21066C1.30534 7.84333 1.5235 6.90999 1.83967 6.09333C2.16251 5.23709 2.66814 4.46152 3.32134 3.82066C3.96188 3.16791 4.73705 2.66268 5.59284 2.34016C6.4095 2.02399 7.34284 1.80699 8.70783 1.74399H8.709ZM19.1857 4.05399C17.8323 3.99216 17.4263 3.97933 13.9998 3.97933C10.5733 3.97933 10.1673 3.99216 8.814 4.05399C7.56217 4.11116 6.88317 4.31999 6.4305 4.49616C5.832 4.72949 5.40384 5.00599 4.95467 5.45516C4.52889 5.86939 4.20121 6.37366 3.99567 6.93099C3.8195 7.38366 3.61067 8.06266 3.5535 9.31449C3.49167 10.6678 3.47884 11.0738 3.47884 14.5003C3.47884 17.9268 3.49167 18.3328 3.5535 19.6862C3.61067 20.938 3.8195 21.617 3.99567 22.0697C4.201 22.6262 4.52884 23.1313 4.95467 23.5455C5.36884 23.9713 5.874 24.2992 6.4305 24.5045C6.88317 24.6807 7.56217 24.8895 8.814 24.9467C10.1673 25.0085 10.5722 25.0213 13.9998 25.0213C17.4275 25.0213 17.8323 25.0085 19.1857 24.9467C20.4375 24.8895 21.1165 24.6807 21.5692 24.5045C22.1677 24.2712 22.5958 23.9947 23.045 23.5455C23.4708 23.1313 23.7987 22.6262 24.004 22.0697C24.1802 21.617 24.389 20.938 24.4462 19.6862C24.508 18.3328 24.5208 17.9268 24.5208 14.5003C24.5208 11.0738 24.508 10.6678 24.4462 9.31449C24.389 8.06266 24.1802 7.38366 24.004 6.93099C23.7707 6.33249 23.4942 5.90433 23.045 5.45516C22.6307 5.02941 22.1265 4.70174 21.5692 4.49616C21.1165 4.31999 20.4375 4.11116 19.1857 4.05399ZM12.3607 18.4565C13.2761 18.8376 14.2954 18.889 15.2446 18.602C16.1937 18.315 17.0138 17.7074 17.5647 16.8829C18.1156 16.0585 18.3632 15.0683 18.2652 14.0816C18.1672 13.0949 17.7297 12.1728 17.0273 11.4728C16.5796 11.0254 16.0382 10.6828 15.4422 10.4697C14.8462 10.2566 14.2103 10.1782 13.5804 10.2404C12.9505 10.3025 12.3422 10.5035 11.7993 10.829C11.2564 11.1544 10.7924 11.5962 10.4407 12.1225C10.089 12.6488 9.85839 13.2465 9.76544 13.8726C9.67248 14.4987 9.71951 15.1377 9.90313 15.7434C10.0868 16.3492 10.4024 16.9067 10.8273 17.3758C11.2523 17.845 11.776 18.214 12.3607 18.4565ZM9.3355 9.83599C9.94803 9.22346 10.6752 8.73758 11.4755 8.40608C12.2758 8.07458 13.1336 7.90396 13.9998 7.90396C14.8661 7.90396 15.7238 8.07458 16.5242 8.40608C17.3245 8.73758 18.0516 9.22346 18.6642 9.83599C19.2767 10.4485 19.7626 11.1757 20.0941 11.976C20.4256 12.7763 20.5962 13.6341 20.5962 14.5003C20.5962 15.3666 20.4256 16.2243 20.0941 17.0246C19.7626 17.825 19.2767 18.5521 18.6642 19.1647C17.4271 20.4017 15.7493 21.0967 13.9998 21.0967C12.2504 21.0967 10.5726 20.4017 9.3355 19.1647C8.09844 17.9276 7.40347 16.2498 7.40347 14.5003C7.40347 12.7509 8.09844 11.0731 9.3355 9.83599ZM22.0592 8.88633C22.211 8.74314 22.3325 8.57095 22.4165 8.37996C22.5006 8.18897 22.5454 7.98306 22.5485 7.77441C22.5515 7.56577 22.5127 7.35863 22.4342 7.16527C22.3558 6.97191 22.2393 6.79626 22.0918 6.64871C21.9442 6.50116 21.7686 6.38471 21.5752 6.30626C21.3819 6.22782 21.1747 6.18896 20.9661 6.19201C20.7574 6.19505 20.5515 6.23992 20.3605 6.32397C20.1695 6.40802 19.9974 6.52954 19.8542 6.68133C19.5757 6.97653 19.4232 7.36863 19.4291 7.77441C19.4351 8.18019 19.5989 8.56769 19.8858 8.85464C20.1728 9.1416 20.5603 9.30543 20.9661 9.31134C21.3719 9.31726 21.764 9.1648 22.0592 8.88633Z" fill="white"></path>
</svg>
